<svg width="90" height="90" viewBox="0 0 90 90" fill="none" xmlns="http://www.w3.org/2000/svg">
<path d="M45 90C69.8528 90 90 69.8528 90 45C90 20.1472 69.8528 0 45 0C20.1472 0 0 20.1472 0 45C0 69.8528 20.1472 90 45 90Z" fill="#D0E7E5"/>
<path d="M22.2598 45.3141C22.1215 45.9362 22.3981 46.6967 22.9511 47.0423C23.0202 47.1115 23.0894 47.1115 23.0894 47.1806C23.1585 47.2497 23.1585 47.3188 23.1585 47.388C23.1585 47.6645 23.1585 48.0793 22.882 48.1484C22.8128 48.2175 22.6746 48.2175 22.6055 48.2175C22.2598 48.3558 22.1907 48.7706 22.1907 49.1162C22.1907 49.3927 22.2598 49.6693 22.4672 49.8767C22.7437 50.0149 23.0894 49.9458 23.3659 49.8075C24.1263 49.4619 24.8867 49.0471 25.1633 48.2867C25.3707 47.8028 25.3015 47.3188 25.2324 46.8349C25.1633 46.1436 25.0941 45.3832 24.9559 44.6919L22.2598 45.3141Z" fill="white"/>
<path d="M5.5995 45.2449C4.83907 45.7979 4.63168 46.9731 4.97733 47.8718C5.04646 48.0101 5.04646 48.0792 5.11559 48.2175C5.32298 48.7014 5.73776 49.1162 6.15254 49.3927C6.56732 49.6692 7.05123 49.7383 7.53514 49.7383C7.60427 49.7383 7.60427 49.7383 7.6734 49.6692C7.6734 49.6001 7.6734 49.6001 7.6734 49.5309C7.53514 48.9779 7.32775 48.494 6.9821 48.0101C7.12036 48.0792 7.25862 48.0101 7.39688 47.8718C7.46601 47.7336 7.53514 47.5953 7.53514 47.457C7.60427 46.7658 7.60427 46.0745 7.39688 45.4523C7.32775 45.4523 7.18949 45.5214 7.12036 45.5214L5.5995 45.2449Z" fill="white"/>
<path d="M17.6281 76.7681C17.6281 76.8373 17.6281 76.9755 17.6281 77.0446C17.2825 80.5011 17.0751 81.5381 18.5268 82.3676C20.0476 83.1972 19.5637 84.5107 21.3611 84.8563C23.1585 85.202 24.9559 84.6489 25.025 83.7502C25.0941 82.8516 23.8498 82.4368 22.8128 80.5703C21.7759 78.7729 21.3611 76.699 21.3611 76.699L17.6281 76.7681Z" fill="white"/>
<path d="M19.702 78.7038C19.702 79.6025 20.2551 80.432 20.9464 81.0542C21.6377 81.6764 22.4672 82.1603 23.0203 82.8516C23.2276 83.1281 23.435 83.4046 23.435 83.7503C23.435 84.3033 22.8129 84.7181 22.329 84.9946C22.8129 84.8564 23.3659 84.7872 23.8498 84.649C24.2646 84.5798 24.7485 84.4416 24.9559 84.0268C25.1633 83.6811 25.025 83.1972 24.7485 82.8516C24.472 82.5059 24.1263 82.2986 23.8498 81.9529C23.3659 81.3999 23.0894 80.7086 22.8129 80.0173C22.6055 79.4642 22.3981 78.9112 22.1216 78.3582C21.9833 78.0125 21.7759 77.5977 21.4303 77.5977L19.702 78.7038Z" fill="#BAE3E1"/>
<path d="M7.32774 77.5977C7.466 79.6716 6.70557 82.1603 5.73775 83.3355C4.76993 84.5107 4.0095 85.9624 6.49818 86.3772C9.05598 86.8611 10.3695 85.0637 10.4386 83.8194C10.5077 82.5751 12.0286 82.0912 12.0286 80.8468C11.9594 79.6025 12.0286 78.3582 12.0286 78.3582L7.32774 77.5977Z" fill="white"/>
<path d="M8.43381 79.3259C8.71033 79.8099 9.53989 79.6025 9.88554 79.9481C10.0238 80.1555 10.0929 80.3629 10.0238 80.6394C9.95467 80.9851 9.81641 81.3307 9.67815 81.6764C9.26337 82.5751 8.84859 83.5429 8.22642 84.3033C7.60425 85.0637 6.63644 85.6859 5.59949 85.6859C6.84383 86.3772 8.6412 86.2389 9.53989 85.0637C9.74728 84.7872 9.88554 84.4416 10.0929 84.0959C10.5768 83.2664 11.199 82.5751 11.6138 81.7455C12.0286 80.9159 12.236 79.8099 11.6829 79.0494C11.6138 79.1186 11.4755 79.1877 11.4064 79.1877L8.43381 79.3259Z" fill="#BAE3E1"/>
<path d="M4.49341 45.7288L7.60425 45.9362L8.6412 42.8945C10.8534 44.5536 18.112 43.5858 19.0107 43.5858C19.9094 43.5858 21.292 42.9636 21.292 42.9636L21.4994 45.0375C21.4994 45.0375 24.2646 45.6597 26.1311 44.0697C25.578 39.9911 23.6424 24.7134 23.0202 22.8469C22.398 20.9803 21.2228 18.9064 17.3516 18.146C16.6603 20.5656 13.6186 20.3582 11.199 18.8373C7.53512 19.8051 6.15253 22.0864 5.59949 24.2294C5.04645 26.3725 4.63167 37.0185 4.63167 37.0185L4.49341 45.7288Z" fill="#41AFA9"/>
<path d="M8.43381 25.6812C8.15729 27.4094 7.88077 29.1377 7.60425 30.8659C6.98208 35.5668 6.5673 40.2676 6.49817 45.0376C6.49817 45.3832 6.49817 45.7289 6.77469 45.9363C7.05121 46.2128 7.53512 46.0745 7.81164 45.798C8.08816 45.5215 8.15729 45.1067 8.22642 44.6919C8.50294 43.2402 8.6412 41.7885 8.57207 40.2676L8.43381 25.6812Z" fill="#238680"/>
<path d="M23.8498 45.1067C23.8498 45.1067 23.8498 45.0376 23.8498 45.1067C23.9189 42.8945 23.5041 40.6132 23.2276 38.4011C23.0894 36.8111 22.8129 35.2902 22.6746 33.7003C22.5363 31.9029 22.4672 30.1055 22.3289 28.3773C22.2598 27.5477 22.1907 26.7181 22.1216 25.9577C21.9833 25.059 21.7068 24.2295 21.4994 23.3308C21.2229 22.4321 21.0155 21.6025 20.4624 20.8421C20.1168 20.3582 19.702 19.9434 19.2181 19.5286C19.0798 19.3904 17.4207 18.2152 17.559 18.0769C17.559 18.0769 16.5912 19.8743 14.8629 20.0125C15.3468 19.9434 15.6925 21.6717 15.8999 22.0173C16.2455 22.7777 16.7294 23.2616 16.9368 24.0912C17.2825 25.1282 17.4899 26.1651 17.6281 27.2021C17.9738 29.3451 18.1811 31.419 18.3194 33.562C18.4577 35.2902 18.5959 37.0876 18.7342 38.8159C18.8724 40.9589 18.112 41.9267 17.0751 43.5858C18.3885 43.7241 19.9785 43.2402 21.292 43.0328L21.5685 45.1067C21.4994 45.1758 23.0894 45.3832 23.8498 45.1067Z" fill="#238680"/>
<path d="M19.8403 10.8183C19.8403 11.5787 19.149 11.9243 18.4577 11.7861C18.2503 11.7861 18.112 11.8552 18.112 12.0626C18.112 14.0674 16.6603 15.3117 14.9321 15.8647C14.8629 15.8647 14.7938 16.003 14.7938 16.0721C14.7938 16.1413 14.7938 16.1413 14.7938 16.2104C14.7938 16.2795 14.8629 16.3486 15.0012 16.2795C15.3468 16.2104 15.6234 16.1413 15.8999 16.0721H15.969C15.969 16.1413 15.969 16.2104 15.969 16.2795C15.969 16.4869 15.969 16.6943 15.969 16.9017C16.0381 17.1782 16.1764 17.4547 16.3838 17.6621C16.5912 17.8695 16.7986 17.9386 17.0751 18.0769C16.8677 18.4917 16.6603 18.9065 16.2455 19.1138C15.7616 19.3904 15.1395 19.5286 14.5173 19.5286H14.4482C13.4803 19.5286 12.5125 19.183 11.8212 18.5608C12.0977 18.4225 12.3051 18.2152 12.4434 17.9386C12.5816 17.9386 12.6508 17.8695 12.7199 17.7312C12.789 17.3165 12.7199 16.9017 12.5816 16.4178C12.5125 16.2104 12.5125 16.003 12.4434 15.7956C12.7199 15.9339 13.0656 16.003 13.4112 16.003C13.5495 16.003 13.6877 15.8647 13.6186 15.7265C13.6186 15.6573 13.6186 15.5882 13.5495 15.5882C13.5495 15.5882 13.4803 15.5882 13.4803 15.5191C11.7521 15.0352 10.5769 13.7908 10.5769 11.9935C10.5769 11.7861 10.3695 11.7169 10.2312 11.7169C9.60906 11.8552 8.84863 11.4404 8.84863 10.7491C8.84863 10.0578 9.60906 9.71218 10.1621 10.127C10.3695 10.2652 10.5769 10.0578 10.5769 9.85044V9.71218C10.646 9.71218 10.7151 9.64305 10.646 9.57392C10.646 9.2974 10.5769 9.09001 10.5077 8.81349C10.5077 7.77654 10.5077 6.80872 10.5077 5.77177C10.5769 5.70264 10.5769 5.70264 10.5769 5.63351C10.646 5.42612 10.646 5.1496 10.7151 4.94221C10.7151 4.87308 10.7151 4.80396 10.7843 4.73483C10.7843 4.6657 10.7843 4.6657 10.7843 4.6657C12.6508 5.35699 14.7247 5.63351 16.7294 5.42612C17.0751 5.42612 17.4207 5.35699 17.7664 5.21873C17.9046 5.28786 18.0429 5.35699 18.1812 5.35699C18.1812 5.77177 18.1812 6.11742 18.1812 6.5322C18.1812 7.63828 18.1812 8.74436 18.1812 9.85044C18.1812 10.0578 18.4577 10.2652 18.5959 10.127C19.0799 9.78131 19.8403 10.127 19.8403 10.8183Z" fill="white"/>
<path d="M17.5589 18.0769C16.8677 19.3212 15.4159 20.0125 14.0333 19.8051C14.1716 19.736 14.3098 19.6669 14.379 19.5977C14.5172 19.4595 14.5864 19.3212 14.6555 19.183C14.7938 18.9064 14.7938 18.5608 14.7938 18.2151C14.7938 17.593 14.7938 16.9017 14.7938 16.2795C14.7938 16.3486 14.8629 16.4178 15.0011 16.3486C15.3468 16.2795 15.6233 16.2104 15.8998 16.1412C15.8998 16.2104 15.8998 16.2795 15.8998 16.3486C16.1072 17.1091 16.7294 17.8004 17.5589 18.0769Z" fill="#BAE3E1"/>
<path d="M19.8403 10.8183C19.8403 11.5787 19.149 11.9243 18.4577 11.7861C18.2503 11.7861 18.112 11.8552 18.112 12.0626C18.112 14.0674 16.6603 15.3117 14.932 15.8647C14.8629 15.8647 14.7938 16.003 14.7938 16.0721C14.379 16.0721 13.9642 16.003 13.5495 15.7956C13.4803 15.7265 13.3421 15.7265 13.2729 15.6573C13.3421 15.6573 13.4112 15.6573 13.4803 15.6573C14.4481 15.5882 15.3468 15.1734 16.1073 14.5513C16.8677 13.86 17.3516 12.8922 17.4899 11.8552C17.6972 10.127 16.9368 8.39871 17.0751 6.60133C16.3838 7.01611 15.4851 7.08524 14.6555 6.94698C13.826 6.80872 13.0655 6.46307 12.3051 6.11742C11.6829 5.8409 11.0608 5.42612 10.646 4.94221C10.646 4.87308 10.646 4.80396 10.7151 4.73483C10.7151 4.6657 10.7151 4.6657 10.7151 4.6657C12.5816 5.35699 14.6555 5.63351 16.6603 5.42612C17.0059 5.42612 17.3516 5.35699 17.6972 5.21873C17.8355 5.28786 17.9738 5.35699 18.112 5.35699C18.112 5.77177 18.112 6.11742 18.112 6.5322C18.112 7.63828 18.112 8.74436 18.112 9.85044C18.112 10.0578 18.3885 10.2652 18.5268 10.127C19.0798 9.78131 19.8403 10.127 19.8403 10.8183Z" fill="#BAE3E1"/>
<path d="M12.7199 8.95175V8.81349C12.7199 8.74436 12.6508 8.67523 12.5816 8.6061C12.5125 8.53697 12.4434 8.53697 12.3742 8.6061C12.3051 8.6061 12.236 8.67523 12.1668 8.74436C12.0286 9.02088 12.0286 9.2974 12.0977 9.50478C12.0977 9.57391 12.1668 9.64304 12.236 9.71217C12.3051 9.7813 12.3742 9.7813 12.4434 9.71217C12.5125 9.71217 12.5816 9.64304 12.6508 9.57391C12.7199 9.50478 12.7199 9.43565 12.6508 9.36653V9.22827C12.6508 9.15914 12.6508 9.15914 12.6508 9.09001C12.7199 9.09001 12.7199 9.02088 12.7199 8.95175L12.6508 9.09001L12.7199 8.95175Z" fill="#136964"/>
<path d="M16.3838 8.74431C16.3146 8.67518 16.2455 8.67518 16.1764 8.67518C16.1072 8.67518 16.0381 8.67518 15.969 8.74431C15.8998 8.81344 15.8998 8.88257 15.8998 8.9517C15.8998 9.15909 15.8998 9.29735 15.8998 9.50474C15.8998 9.57387 15.969 9.71213 15.969 9.71213C16.0381 9.78126 16.1072 9.78126 16.1764 9.78126C16.2455 9.78126 16.3838 9.78126 16.3838 9.71213C16.4529 9.643 16.4529 9.57387 16.4529 9.50474C16.4529 9.29735 16.4529 9.15909 16.4529 8.9517C16.4529 8.88257 16.4529 8.81344 16.3838 8.74431Z" fill="#136964"/>
<path d="M12.6507 7.29258C12.3742 7.29258 12.1668 7.29258 11.8903 7.36171C11.6138 7.43084 11.4064 7.5691 11.199 7.77649C11.1299 7.84562 11.1299 7.91475 11.199 7.98388C11.2681 8.05301 11.3373 8.05301 11.4064 8.05301C11.6138 7.91475 11.752 7.84562 11.9594 7.77649C12.0977 7.70736 12.1668 7.70736 12.3051 7.70736C12.3742 7.70736 12.5125 7.70736 12.5816 7.70736C12.6507 7.70736 12.789 7.63823 12.789 7.49997C12.8581 7.43084 12.789 7.36171 12.6507 7.29258Z" fill="#136964"/>
<path d="M15.7616 7.63823C15.8999 7.63823 16.0381 7.70736 16.1764 7.70736C16.4529 7.77649 16.6603 7.91475 16.8677 8.12214C17.006 8.2604 17.2825 8.05301 17.1442 7.84562C16.9368 7.63823 16.6603 7.49997 16.3147 7.43084C16.1764 7.36171 16.0381 7.36171 15.8999 7.43084C15.7616 7.43084 15.6234 7.49997 15.4851 7.5691V7.63823C15.4851 7.5691 15.6234 7.5691 15.7616 7.63823Z" fill="#136964"/>
<path d="M15.3468 13.0995C15.0703 13.3761 14.6555 13.5143 14.3099 13.5143C13.8951 13.5835 13.4803 13.5143 13.1347 13.2378C13.0656 13.1687 12.9273 13.2378 12.8582 13.3069C12.789 13.3761 12.8582 13.5143 12.9273 13.5835C13.3421 13.86 13.826 13.9982 14.3099 13.9982C14.8629 13.9982 15.2777 13.7908 15.6925 13.3761C15.8999 13.2378 15.6234 12.8922 15.3468 13.0995Z" fill="#136964"/>
<path d="M13.8951 12.6156C14.0334 12.6156 14.1025 12.6156 14.2408 12.6156C14.379 12.6156 14.5173 12.6156 14.5864 12.5465C14.7247 12.4773 14.7938 12.4773 14.9321 12.4082C15.0012 12.3391 15.0703 12.2699 15.0012 12.2008C14.9321 12.1317 14.8629 12.0626 14.7938 12.0626C14.6555 12.0626 14.6555 12.0626 14.5173 12.1317C14.379 12.1317 14.3099 12.2008 14.1716 12.2008H14.1025H13.8951C13.826 12.2008 13.7569 12.2008 13.6877 12.2699L13.6186 12.4773L13.6877 12.6156C13.7569 12.6156 13.826 12.6156 13.8951 12.6156Z" fill="#136964"/>
<path d="M21.7068 78.1507C20.3242 78.4964 19.0107 78.5655 17.559 78.289C17.006 73.9338 16.6603 69.5786 16.2455 65.1543C16.0381 62.8039 15.8999 60.4535 15.6234 58.1722C15.4851 56.3057 15.3468 54.2318 14.9321 52.4344C15.0012 52.227 15.0012 52.0196 15.0012 51.7431C15.0012 51.3975 15.0703 51.0518 15.0703 50.7062C15.0703 50.084 15.1395 49.3927 15.1395 48.7705C15.1395 48.1484 15.1395 47.4571 15.1395 46.8349C15.1395 46.2127 15.2086 45.4523 14.9321 44.8993H14.8629C14.6555 45.5214 14.7247 46.2127 14.7247 46.8349C14.7247 47.4571 14.6555 48.1484 14.6555 48.7705C14.6555 49.3927 14.6555 50.084 14.5864 50.7062C14.5864 51.0518 14.5864 51.3975 14.5173 51.7431C14.5173 51.9505 14.5173 52.1579 14.5173 52.2962C14.0334 54.1627 13.9642 56.2366 13.826 58.1031C13.6186 60.5918 13.4112 63.0804 13.2038 65.5C12.789 69.9934 12.4434 74.4869 11.8903 78.9803C10.5077 79.2568 9.12515 79.1877 7.74255 78.842C8.22646 69.4404 8.36472 60.0387 8.64124 50.637C8.71037 48.2175 8.84863 45.8671 8.84863 43.4475C9.05602 43.5858 9.26341 43.6549 9.53993 43.7241C10.8534 44.0006 12.1669 44.1388 13.4803 44.208C15.969 44.3462 18.4577 44.0697 20.8081 43.5167C20.8081 49.2545 21.0846 54.9922 21.2229 60.73C21.292 66.6061 21.4303 72.3438 21.7068 78.1507Z" fill="#2BA099"/>
<path d="M14.7938 44.0006C14.7938 44.0006 11.9595 67.09 11.8212 69.5787C11.6829 72.0673 9.7473 79.6716 10.0238 79.6716C10.3003 79.6716 11.7521 79.0495 11.7521 79.0495L14.7938 52.7801V44.0006Z" fill="#136964"/>
<path d="M14.7938 44.3462C14.7938 47.1114 14.7938 49.9457 14.7938 52.7109C14.7938 52.9874 14.7938 53.264 14.8629 53.5405C14.932 53.8861 15.1394 54.2318 15.2777 54.5083C16.6603 57.1352 17.1442 60.1078 17.6281 63.0113C17.9046 64.6704 18.112 66.3295 18.3885 67.9886C18.9416 71.5834 19.4946 75.1781 19.9785 78.7729C20.7389 78.7038 21.4994 78.5655 22.2598 78.4964C21.9141 73.4499 21.7759 68.4034 21.7759 63.3569C21.7759 62.1817 21.7759 60.9374 21.7759 59.7622C21.6376 54.2318 20.6698 48.7014 20.7389 43.171C18.665 43.6549 16.522 43.8623 14.4481 43.724L14.7938 44.3462Z" fill="#136964"/>
<path d="M26.3385 43.7931C25.3706 38.4701 24.5411 33.2163 23.9189 27.8241C23.6424 25.612 23.5041 22.985 22.2598 20.9803C21.7759 20.2199 21.0846 19.5977 20.255 19.1138C19.4946 18.699 18.3885 18.0768 17.4898 18.0768C17.4898 17.9386 17.4898 17.8694 17.4898 17.7312C17.4898 17.5929 17.2825 17.5238 17.1442 17.5929C16.7294 17.4547 16.3838 17.1781 16.2455 16.7634C16.1764 16.556 16.1764 16.3486 16.1764 16.0721C16.1764 16.0029 16.2455 15.9338 16.2455 15.8647C17.4898 15.1734 18.3885 13.8599 18.5268 12.4082C19.4946 12.4082 20.3933 11.786 20.255 10.7491C20.1859 9.85037 19.2872 9.36646 18.5268 9.57385V9.50472C18.8033 9.02081 19.0798 8.5369 19.3564 7.98386C19.6329 7.49995 19.9094 6.94692 19.9785 6.39388C20.1168 5.70258 19.9094 4.94215 19.4255 4.52737C19.4946 4.45824 19.4946 4.31998 19.4946 4.25085C20.0476 3.76694 20.255 3.2139 20.0476 2.5226C19.7711 1.48566 18.8033 0.863487 17.7664 0.586967C16.6603 0.241318 15.4851 0.103058 14.3099 0.172188C13.2729 0.241318 12.236 0.517837 11.2682 1.07088C10.8534 1.3474 10.5077 1.62392 10.1621 1.96956C9.81643 2.31521 9.60904 2.79912 9.33252 3.2139C9.19426 3.42129 8.98687 3.42129 8.71035 3.62868C8.50296 3.76694 8.3647 3.97433 8.29557 4.18172C8.08818 4.73476 8.15731 5.2878 8.3647 5.84084C8.57209 6.46301 8.84861 7.15431 9.12513 7.77647C9.33252 8.26038 9.53991 8.81342 9.7473 9.29733V9.57385C8.98687 9.36646 8.08818 9.9195 8.01905 10.7491C7.94992 11.786 8.77948 12.4773 9.7473 12.4082C9.88556 13.7216 10.5769 15.0351 11.7521 15.6573C11.7521 15.7955 11.8212 15.8647 11.8212 15.9338C11.8903 16.1412 11.8903 16.3486 11.9595 16.556C12.0286 16.9016 12.0286 17.1781 12.0286 17.5238C11.8903 17.8694 11.5447 18.2151 11.1299 18.2151C10.9916 18.2151 10.9225 18.2842 10.8534 18.4225C8.64122 19.3212 6.56732 20.4272 5.66863 22.7085C4.63169 25.0589 4.56256 27.755 4.49343 30.3128C4.4243 33.4237 4.14778 36.6036 4.00952 39.7145C3.94039 41.3736 3.80213 43.0327 3.87126 44.6227C3.87126 44.9683 3.80213 45.314 4.07865 45.5214C4.28604 45.6596 4.56256 45.7979 4.83908 45.867C4.76995 46.0053 4.63169 46.2127 4.63169 46.3509C4.56256 46.6275 4.56256 46.904 4.56256 47.1114C4.56256 47.6644 4.70082 48.2175 5.04647 48.7014C5.32299 49.1161 5.73776 49.5309 6.22167 49.7383C6.56732 49.9457 7.25862 50.2222 7.60427 49.9457V49.8766C7.6734 49.8074 7.74253 49.7383 7.6734 49.6692C7.60427 49.3235 7.46601 49.047 7.32775 48.7705C7.25862 48.6322 7.12036 48.494 7.05123 48.3557L6.9821 48.2866C7.12036 48.2175 7.25862 48.1483 7.39688 48.0101C7.6734 47.6644 7.6734 47.2496 7.60427 46.8349C7.53514 46.6275 7.53514 46.4201 7.46601 46.2127C7.46601 46.0744 7.46601 46.0053 7.46601 45.867C7.46601 45.7288 7.53514 45.6596 7.53514 45.5214L7.39688 45.4523L7.32775 45.3831C7.12036 45.314 6.84384 45.314 6.56732 45.314C6.35993 45.314 6.22167 45.314 6.01428 45.314C5.80689 45.2449 5.5995 45.2449 5.32299 45.1757C5.18473 45.1757 5.04647 45.1066 4.90821 45.0375C4.56256 45.0375 4.4243 44.8992 4.56256 44.5536C4.4243 44.0005 4.56256 43.171 4.56256 42.6179C4.56256 41.2353 4.63169 39.8527 4.70082 38.4701C4.83908 35.7741 5.04647 33.078 5.1156 30.3819C5.18473 28.0315 5.25386 25.612 6.01428 23.3307C6.84384 20.842 8.84861 19.7359 11.1299 18.7681C12.0286 19.7359 13.3421 20.289 14.6555 20.2199C15.4159 20.2199 16.1764 20.0125 16.7985 19.5286C17.0751 19.3212 17.2825 19.0446 17.4207 18.699C17.4898 18.5607 17.559 18.3533 17.559 18.2151C18.3194 18.7681 19.4255 18.9755 20.1859 19.4594C21.292 20.1507 21.9833 21.1877 22.3981 22.432C23.1585 24.7824 23.3659 27.2711 23.5733 29.6906C24.0572 34.4606 24.8867 39.2306 25.7854 44.0005C24.7485 44.6227 23.5733 44.9683 22.3289 45.0375L22.1907 44.8992C22.1215 44.8992 21.9833 44.8992 21.9833 45.0375C21.845 45.0375 21.7759 45.0375 21.6376 45.0375C21.5685 44.4844 21.4994 43.8623 21.4302 43.3092C21.5685 43.171 21.4994 42.9636 21.3611 42.8253C21.3611 42.7562 21.3611 42.6871 21.3611 42.6179C21.2229 39.6453 21.0155 36.7419 20.8772 33.7693C20.8081 32.2485 20.6698 30.6585 20.6007 29.1376C20.5316 27.6859 20.5316 26.0959 20.1859 24.6442C20.1859 24.575 20.0476 24.575 20.0476 24.6442C19.8403 26.2342 20.0476 27.8933 20.1168 29.4833C20.1859 31.0041 20.255 32.4558 20.3242 33.9767C20.4624 36.9493 20.6007 39.9219 20.7389 42.8945C18.4577 43.4475 16.1764 43.7931 13.826 43.724C12.5816 43.724 11.2682 43.5858 10.0238 43.3784C9.7473 43.3092 9.33252 43.3092 9.056 43.171C8.64122 42.9636 8.64122 42.6871 8.57209 42.2723C8.50296 41.6501 8.57209 41.0279 8.57209 40.4058C8.57209 37.9171 8.57209 35.4284 8.57209 32.9397C8.57209 30.4511 8.77948 27.8241 8.43383 25.3355C8.43383 25.2663 8.29557 25.2663 8.29557 25.3355C7.88079 28.1007 8.08818 31.0732 8.01905 33.8384C8.29557 36.6728 8.29557 39.5071 8.29557 42.4105C8.29557 42.8253 8.3647 43.1018 8.50296 43.2401C8.01905 47.7335 8.01905 52.3652 7.88079 56.9278C7.74253 61.836 7.60427 66.6751 7.39688 71.5833C7.32775 74.072 7.18949 76.6298 7.05123 79.1185V79.2568C6.77471 80.5011 6.2908 81.7454 5.59951 82.8515C5.25386 83.4046 4.90821 83.8885 4.70082 84.5106C4.56256 84.9945 4.4243 85.6167 4.97734 85.8932C5.53037 86.2389 6.2908 86.3771 6.91297 86.4463C7.53514 86.5154 8.15731 86.4463 8.71035 86.2389C9.26339 86.0315 9.67817 85.6858 10.0238 85.2711C10.4386 84.718 10.5077 84.0267 10.9225 83.4737C11.3373 82.8515 11.8212 82.4367 12.0977 81.7454C12.3051 81.0541 12.3742 80.3628 12.236 79.6715V79.6024C12.8581 75.0398 13.2729 70.4081 13.6186 65.7764C13.826 63.2878 14.0334 60.7991 14.2407 58.3795C14.379 57.2043 14.5173 55.96 14.6555 54.7157C14.7938 55.8909 14.932 57.0661 15.0012 58.2413C15.2086 60.6608 15.4159 63.0112 15.6233 65.4308C15.969 69.9242 16.3838 74.4177 16.9368 78.842C16.9368 78.9802 17.0751 79.0494 17.2133 79.0494C17.1442 79.6715 17.0751 80.2246 17.1442 80.8468C17.2133 81.4689 17.4207 81.8837 17.9046 82.2294C18.1811 82.3676 18.4577 82.5059 18.6651 82.7133C18.8724 82.9206 19.0798 83.1972 19.2181 83.4737C19.5637 83.9576 19.8403 84.4415 20.3242 84.7872C21.3611 85.4093 22.6746 85.2019 23.7807 84.9945C24.3337 84.8563 24.8867 84.7872 25.025 84.165C25.1633 83.6119 24.8176 83.128 24.4028 82.7133C23.8498 82.0911 23.3659 81.4689 22.9511 80.7776C22.5363 80.0863 22.2598 79.395 21.9833 78.6346C22.0524 78.5655 22.0524 78.4963 22.0524 78.4272C21.7759 72.5512 21.6376 66.6751 21.4302 60.7991C21.292 55.0613 21.292 49.2544 20.7389 43.5166H20.8772C20.9463 44.1388 20.9463 44.8301 21.0155 45.4523C21.0155 45.7288 21.4994 45.7979 21.4994 45.4523C21.5685 45.4523 21.6376 45.4523 21.7759 45.4523C21.7759 45.7288 21.7759 46.0744 21.9142 46.3509C21.9833 46.5583 22.0524 46.7657 22.1907 46.904C22.3289 47.1114 22.4672 47.2496 22.6746 47.3879H22.7437C22.7437 47.5262 22.7437 47.7335 22.7437 47.8718C22.7437 47.9409 22.8128 48.0792 22.9511 48.0792C23.6424 48.0792 24.1954 47.3879 24.0572 46.6966C24.0572 46.6275 23.9189 46.5583 23.8498 46.5583C23.7807 46.5583 23.7115 46.6966 23.7115 46.7657C23.7807 47.1805 23.435 47.5953 23.0894 47.6644C23.0894 47.3188 23.0894 46.9731 23.0894 46.5583C23.0894 46.2127 23.0894 45.867 23.0202 45.5214C23.2968 45.5214 23.5733 45.4523 23.7807 45.4523C24.0572 45.3831 24.3337 45.314 24.6102 45.1757C24.6102 45.9362 24.6794 46.6275 24.6794 47.3879C24.7485 48.0792 24.7485 48.7014 24.1263 49.1853C23.7115 49.5309 23.0894 49.6692 22.5363 49.8074C22.1907 49.8766 21.9833 49.8074 21.9833 49.4618C21.9833 49.1853 21.9833 48.9779 22.0524 48.7014C22.0524 48.5631 21.9142 48.494 21.845 48.6322C21.5685 49.1161 21.3611 49.8766 21.9142 50.2222C22.2598 50.4296 22.6746 50.2913 23.0202 50.1531C23.3659 50.084 23.6424 49.9457 23.9881 49.8074C24.6794 49.4618 25.0941 48.9087 25.0941 48.0792C25.0941 47.5953 25.025 47.1114 25.025 46.6275C24.9559 46.0744 24.9559 45.5905 24.8867 45.1066C25.1633 44.9683 25.5089 44.8301 25.7854 44.6918C25.9237 44.6918 26.0619 44.6227 26.0619 44.5536C26.6841 44.2079 26.615 43.8623 26.3385 43.7931ZM6.70558 45.867C6.84384 45.867 7.05123 45.9362 7.18949 45.9362V46.0053C7.18949 46.2127 7.18949 46.3509 7.18949 46.5583C7.25862 46.904 7.32775 47.2496 7.25862 47.5953C7.18949 47.8027 7.05123 48.0101 6.84384 48.0101C6.77471 48.0101 6.70558 48.0101 6.63645 47.9409C6.56732 47.8027 6.56732 47.5953 6.56732 47.457C6.56732 46.9731 6.56732 46.5583 6.56732 46.0744C6.63645 46.0053 6.70558 45.9362 6.70558 45.867ZM5.25386 45.9362C5.66863 46.0053 6.01428 46.0744 6.35993 46.1436C6.2908 46.6275 6.2908 47.0422 6.22167 47.457C6.22167 47.6644 6.15254 47.8718 6.2908 48.0792C6.35993 48.2175 6.49819 48.3557 6.70558 48.3557H6.84384L6.9821 48.5631C7.05123 48.7014 7.12036 48.8396 7.18949 48.9087C7.25862 49.1161 7.32775 49.3235 7.39688 49.5309C7.32775 49.5309 7.25862 49.5309 7.18949 49.4618C6.9821 49.3927 6.77471 49.3235 6.63645 49.2544C6.22167 49.047 5.94515 48.7014 5.66863 48.3557C5.04647 47.6644 5.04647 46.7657 5.25386 45.9362ZM16.2455 19.1138C15.7616 19.3903 15.1394 19.5286 14.5173 19.5286C13.4803 19.5286 12.5125 19.1829 11.7521 18.5607C12.0286 18.4225 12.236 18.2151 12.3742 17.9386C12.5125 17.9386 12.5816 17.8694 12.6508 17.7312C12.7199 17.3164 12.6508 16.9016 12.5125 16.4868C12.4434 16.2794 12.4434 16.0721 12.3742 15.8647C12.6508 16.0029 12.9964 16.0721 13.3421 16.0721C13.6186 16.0721 13.6877 15.6573 13.4112 15.5882C11.6829 15.1042 10.5077 13.8599 10.5077 12.0625C10.5077 11.8551 10.3003 11.7169 10.1621 11.786C9.53991 11.9243 8.77948 11.5786 8.77948 10.8182C8.77948 10.1269 9.53991 9.78124 10.0929 10.196C10.3003 10.3343 10.5077 10.1269 10.5077 9.9195V9.71211C10.5769 9.71211 10.5769 9.64298 10.5769 9.57385C10.5769 9.29733 10.5077 9.08994 10.5077 8.81342C10.5077 7.77647 10.5077 6.80866 10.5077 5.77171L10.5769 5.63345C10.646 5.35693 10.7151 5.08041 10.7151 4.73476V4.66563C12.5816 5.35693 14.6555 5.70258 16.6603 5.42606C17.0059 5.42606 17.3516 5.35693 17.6972 5.21867C17.8355 5.2878 17.9738 5.35693 18.112 5.35693C18.0429 5.77171 18.112 6.11736 18.112 6.53214C18.112 7.63821 18.112 8.74429 18.112 9.85037C18.112 10.0578 18.3885 10.2652 18.5268 10.1269C19.0798 9.71211 19.8403 10.0578 19.8403 10.7491C19.8403 11.4404 19.0798 11.8551 18.4577 11.7169C18.2503 11.7169 18.112 11.786 18.112 11.9934C18.112 13.929 16.6603 15.2425 14.8629 15.7955C14.6555 15.8647 14.6555 16.2794 14.932 16.2794C15.2777 16.2103 15.6233 16.1412 15.8999 16.0029C15.8307 16.2795 15.8307 16.556 15.8999 16.8325C15.969 17.109 16.1072 17.3855 16.3146 17.5929C16.522 17.8003 16.7294 17.9386 17.0059 18.0077C16.8677 18.4916 16.5912 18.9064 16.2455 19.1138ZM11.5447 81.4689C11.3373 82.022 10.9916 82.4367 10.646 82.8515C9.95469 83.6811 9.88556 84.9254 8.91774 85.5476C7.88079 86.1698 6.56732 85.9624 5.46125 85.5476C5.32299 85.4785 5.18473 85.4785 5.1156 85.3402C5.04647 85.2019 5.1156 84.9945 5.1156 84.8563C5.18473 84.5798 5.32299 84.3032 5.46125 84.0267C5.73776 83.5428 6.08341 83.0589 6.35993 82.5059C6.84384 81.5381 7.18949 80.5011 7.39688 79.395C8.77948 79.7407 10.2312 79.8098 11.6829 79.6024C11.6829 79.6715 11.6829 79.7407 11.6829 79.8098C11.7521 80.3628 11.7521 80.9159 11.5447 81.4689ZM23.2276 81.6763C23.5733 82.1602 23.9189 82.575 24.2646 82.9898C24.472 83.1972 24.6794 83.4046 24.6794 83.6811C24.7485 84.0959 24.4028 84.2341 24.1263 84.3032C23.1585 84.5798 21.9142 84.8563 20.9463 84.3724C19.9785 83.8885 19.7711 82.7824 18.9416 82.1602C18.7342 82.022 18.4577 81.8837 18.2503 81.7454C17.9046 81.5381 17.7664 81.2615 17.6972 80.9159C17.559 80.2937 17.6281 79.6024 17.559 78.9802V78.9111C18.9416 79.1185 20.3242 79.0494 21.7068 78.7037C22.0524 79.7407 22.6055 80.7776 23.2276 81.6763ZM21.1537 60.7991C21.292 66.606 21.4302 72.4129 21.7068 78.1507C20.3242 78.4963 18.9416 78.5655 17.559 78.2889C17.0059 73.9338 16.6603 69.5786 16.2455 65.1543C16.0381 62.8039 15.8999 60.4534 15.6233 58.103C15.4851 56.2365 15.3468 54.1626 14.932 52.3652C15.0012 52.1579 15.0012 51.9505 15.0012 51.6739C15.0012 51.3283 15.0012 50.9826 15.0703 50.637C15.0703 50.0148 15.1394 49.3235 15.1394 48.7014C15.1394 48.0792 15.1394 47.3879 15.1394 46.7657C15.1394 46.1436 15.1394 45.3831 14.932 44.8301H14.8629C14.6555 45.4523 14.7246 46.1436 14.7246 46.7657C14.7246 47.3879 14.6555 48.0792 14.6555 48.7014C14.6555 49.3235 14.6555 50.0148 14.5864 50.637C14.5864 50.9826 14.5864 51.3283 14.5173 51.6739C14.5173 51.8813 14.4481 52.0887 14.5173 52.227C14.0334 54.0935 13.9642 56.1674 13.7568 58.0339C13.5494 60.5226 13.3421 63.0112 13.1347 65.4308C12.7199 69.9242 12.3742 74.4177 11.8212 78.9111C10.4386 79.1876 9.056 79.1185 7.6734 78.7729C8.15731 69.3712 8.29557 59.9695 8.57209 50.5679C8.64122 48.1483 8.77948 45.7288 8.77948 43.3784C8.98687 43.5166 9.19426 43.5858 9.47078 43.6549C10.7842 43.9314 12.0977 44.0697 13.4112 44.1388C15.8999 44.2771 18.3885 44.0005 20.7389 43.4475C20.7389 49.2544 21.0155 55.0613 21.1537 60.7991ZM22.9511 46.5583C22.9511 46.6275 22.9511 46.7657 22.9511 46.8349C22.6055 46.4201 22.3981 46.0053 22.3981 45.4523C22.6055 45.4523 22.7437 45.4523 22.9511 45.4523C22.9511 45.867 22.9511 46.2127 22.9511 46.5583Z" fill="#136964"/>
<path d="M11.7521 2.17699L11.9595 2.24612C12.3051 2.17699 12.5816 2.03873 12.9273 1.9696C13.2729 1.90047 13.5495 1.83134 13.8951 1.76221C14.2408 1.76221 14.5173 1.69308 14.8629 1.76221C15.2086 1.76221 15.5542 1.83134 15.8307 1.83134C16.1073 1.83134 16.1764 1.41656 15.8999 1.2783C15.2777 1.14004 14.5173 1.14004 13.826 1.2783C13.1347 1.34743 12.3742 1.55482 11.8212 1.90047C11.7521 1.9696 11.7521 2.03873 11.7521 2.17699Z" fill="white"/>
<path d="M17.559 2.10784C17.559 1.90045 17.4899 1.76219 17.4899 1.5548L17.4207 1.62393L17.2825 1.69306V1.83132V1.96958V2.03871L17.3516 2.10784H17.4207H17.559L17.6973 2.03871L17.7664 1.96958L17.8355 1.90045V1.76219V1.69306L17.7664 1.5548L17.6973 1.48567L17.559 1.41654H17.4207L17.3516 1.48567L17.2825 1.69306V1.83132V1.90045L17.3516 2.03871L17.4207 2.10784H17.559Z" fill="white"/>
<path d="M76.665 71.1686L77.218 77.8051C77.218 77.8051 76.4576 77.3903 76.3193 79.1185C76.112 80.8468 76.0428 81.7455 77.0798 82.2294C78.1167 82.7133 79.0154 84.3033 79.3611 84.4415C79.7067 84.5798 80.4671 85.5476 82.3336 85.0637C84.2001 84.5798 83.9928 84.0959 83.6471 83.3355C83.3015 82.575 81.3658 81.1233 81.0893 79.6024C80.8128 78.0816 79.6376 77.6668 79.6376 77.6668L79.9141 70.6847L76.665 71.1686Z" fill="white"/>
<path d="M78.3242 71.3069L78.7389 77.8742C78.7389 77.8742 79.0155 77.9433 79.7068 78.5655C80.3981 79.1877 81.2276 81.7455 81.5041 82.2985C81.7807 82.8516 83.025 83.2663 82.1954 83.9576C81.435 84.6489 79.4302 84.5107 79.4302 84.5107C79.4302 84.5107 80.0524 85.4785 82.4028 85.1328C84.7532 84.7872 84.3385 84.2342 83.7163 83.4046C83.0941 82.575 81.7115 80.7777 81.1585 79.6716C80.6054 78.5655 80.6054 78.1507 79.7068 77.7359C79.9833 73.5882 79.9141 70.9612 79.9141 70.9612L78.3242 71.3069Z" fill="#BAE3E1"/>
<path d="M67.9546 71.0303C67.6781 71.376 67.4707 77.0446 67.4707 77.0446C67.4707 77.0446 66.4338 76.9064 65.8807 78.7038C65.3277 80.5011 64.9821 82.4368 63.9451 83.7502C62.9082 85.0637 63.6686 86.2389 65.2586 86.2389C66.8486 86.2389 68.2312 86.308 68.9225 84.2341C69.6138 82.1602 70.4433 82.9207 70.6507 81.1233C70.9963 78.2198 70.0977 78.6346 70.0977 78.6346L70.9963 71.1686L67.9546 71.0303Z" fill="white"/>
<path d="M63.5303 85.0637C64.0834 85.2711 64.7747 85.4094 65.3968 85.3402C65.6042 85.3402 65.8807 85.2711 66.0881 85.1328C66.2264 84.9946 66.3647 84.7872 66.4338 84.5798C67.1942 82.8516 68.162 81.1233 69.2681 79.6025C69.3372 79.4642 69.4755 79.3259 69.4064 79.1877C69.3372 78.7729 68.7842 78.842 68.6459 78.5655C68.4386 78.2199 68.6459 77.4594 68.6459 77.1138C68.7151 75.9386 68.9225 74.8325 69.0607 73.6573C69.199 72.8969 69.3372 72.2056 69.4755 71.5143C69.9594 71.5143 70.5125 71.3069 70.9272 71.3069C70.0285 73.3808 70.5816 75.7312 70.1668 77.9433C70.0977 78.2199 70.0285 78.4964 69.9594 78.7038C70.1668 78.5655 70.3742 78.9803 70.4433 79.2568C70.5125 79.9481 70.5125 80.7085 70.5125 81.3998C70.5125 81.6072 70.5125 81.8837 70.4433 82.0911C70.3051 82.4368 70.0977 82.6442 69.8903 82.9207C69.5446 83.3355 69.199 83.8194 68.9225 84.3033C68.7842 84.5798 68.5768 84.9255 68.3694 85.202C67.8855 85.8241 67.1251 86.1007 66.3647 86.1007C65.6042 86.1698 64.8438 85.9624 64.0834 85.755L63.5303 85.0637Z" fill="#BAE3E1"/>
<path d="M81.5732 45.314C81.5041 46.0053 81.9189 46.6966 82.5411 46.904C82.6102 47.1114 82.6102 47.3879 82.6102 47.5953C82.6102 47.8027 82.4719 48.0792 82.2645 48.2174C82.1954 48.2866 82.0572 48.2866 81.988 48.3557C81.6424 48.5631 81.5732 49.047 81.5732 49.4618C81.5732 49.6 81.5732 49.7383 81.6424 49.8074C81.7115 49.8766 81.8498 49.8765 81.988 49.8765C82.6102 49.8074 83.2324 49.6 83.8545 49.3235C85.3754 48.6322 85.0297 45.9361 84.2002 44.8992C83.9237 44.9683 81.5732 45.1757 81.5732 45.314Z" fill="white"/>
<path d="M64.5673 45.4523C64.2217 45.5906 64.1525 46.0053 64.1525 46.351C64.1525 47.1114 64.2908 47.941 64.7056 48.5631C65.1895 49.3236 66.0882 49.8075 66.9869 49.8766C66.9869 49.3236 66.7795 48.7014 66.3647 48.2866C66.5721 48.2866 66.7795 48.0792 66.9177 47.8718C66.9869 47.6644 67.056 47.3879 67.056 47.1805C67.056 46.6966 66.9868 46.2127 66.8486 45.7288C66.4338 45.5214 65.9499 45.3832 65.5351 45.3832L64.5673 45.4523Z" fill="white"/>
<path d="M68.0238 42.8253C67.8855 42.687 67.4708 71.0994 67.4708 71.0994C67.4708 71.0994 70.4433 71.7907 72.0333 71.2377C73.2777 58.103 74.4529 52.3652 74.4529 52.3652L75.6972 70.9612C75.6972 70.9612 77.149 72.1364 80.0524 70.6846C80.1907 65.1542 80.3981 43.3092 80.3981 43.3092C80.3981 43.3092 70.9964 45.4522 68.0238 42.8253Z" fill="#41AFA9"/>
<path d="M74.1072 44.1388L75.0059 48.3558C75.0059 48.3558 77.218 52.8492 77.4254 55.1305C77.6328 57.4118 78.6006 59.9696 77.9785 60.2461C77.4254 60.5226 75.9737 60.7991 76.7341 61.1448C77.4945 61.4904 77.8402 61.6287 77.8402 61.6287L77.9785 71.4451L80.1215 71.3069L80.3289 43.3093C80.398 43.2401 76.3193 44.9684 74.1072 44.1388Z" fill="#238680"/>
<path d="M69.8212 71.3069C69.8212 71.3069 70.789 62.9422 70.789 62.1126C70.789 61.283 69.8212 61.0065 69.3373 60.4535C68.8534 59.9004 70.5125 60.73 70.9272 60.0387C71.342 59.3474 72.7246 52.9875 73.0703 50.8444C73.4159 48.7014 74.3146 46.4201 74.3146 46.4201L74.5911 53.3331L72.0333 71.2377L69.8212 71.3069Z" fill="#238680"/>
<path d="M63.6686 45.314C65.8116 45.8671 67.7472 45.5906 67.7472 45.5906L68.0238 42.8945C68.0238 42.8945 69.8903 44.208 73.8998 44.1388C77.9093 44.0697 80.6745 42.9636 80.6745 42.9636L81.1584 45.4523C81.1584 45.4523 83.0941 45.5906 85.5136 44.208C84.9606 39.9911 83.5089 30.935 83.3015 29.2068C83.0941 27.5477 82.7484 24.1603 81.988 21.879C81.2276 19.5977 77.0106 18.0077 77.0106 18.0077C77.0106 18.0077 75.7663 24.5751 75.2133 26.3033C74.6602 28.0316 74.1763 30.2437 74.1763 30.2437C74.1763 30.2437 72.0333 23.8147 71.5494 22.3629C71.0655 20.8421 71.2037 19.3212 71.2037 19.3212L70.305 18.3534C70.305 18.3534 66.6412 19.736 65.3277 22.916C64.2216 26.1651 64.0142 35.9815 64.0142 35.9815L63.6686 45.314Z" fill="#2BA099"/>
<path d="M79.3611 10.8182C79.3611 11.5786 78.6007 11.9243 77.9785 11.786C77.7711 11.7169 77.6328 11.8552 77.6328 12.0625C77.6328 12.9612 76.9415 13.7217 76.3885 14.413C75.8355 15.0351 75.2824 15.6573 74.8676 16.3486C74.7294 16.556 75.075 16.8325 75.2133 16.6251L75.3516 16.4869C75.3516 16.6251 75.3516 16.7634 75.4207 16.9016C75.4898 17.1782 75.6281 17.4547 75.8355 17.6621C76.0429 17.8695 76.2502 17.9386 76.5268 18.0768C76.3885 18.4916 76.112 18.9064 75.6972 19.1138C75.2133 19.3903 74.5911 19.5286 73.969 19.5286C73.0011 19.5286 71.9642 19.1829 71.2038 18.5608C71.4803 18.4225 71.6877 18.2151 71.8259 17.9386C71.9642 17.9386 72.0333 17.8695 72.1025 17.7312C72.1716 17.3164 72.1025 16.8325 71.9642 16.4177C71.8951 16.2795 71.8951 16.0721 71.8259 15.9338C71.8951 16.0029 71.9642 16.0721 72.0333 16.1412C72.2407 16.3486 72.5172 16.0721 72.379 15.8647C71.6877 14.5512 69.9594 13.5834 69.8903 11.9934C69.8903 11.786 69.6829 11.7169 69.5446 11.7169C68.9225 11.8552 68.162 11.5095 68.162 10.7491C68.162 10.0578 68.9225 9.71213 69.4755 10.1269C69.6829 10.2652 69.8903 10.0578 69.8903 9.85039V9.71213C70.0286 9.643 70.0977 9.57387 70.0977 9.43561C69.8903 7.98388 69.8903 6.46303 70.0286 5.0113C70.3051 5.21869 70.5816 5.35695 70.9272 5.49521C71.2729 5.7026 71.6185 5.90999 71.9642 6.04825C72.4481 6.25564 73.0703 6.25564 73.3468 5.77173C73.485 5.56434 73.5542 5.35695 73.5542 5.14956C74.7294 5.97912 76.2502 6.80868 77.5637 6.3939C77.5637 7.5691 77.4946 8.74431 77.5637 9.85039C77.5637 10.0578 77.8402 10.2652 77.9785 10.1269C78.6007 9.78126 79.3611 10.1269 79.3611 10.8182Z" fill="white"/>
<path d="M71.0655 4.73482C70.8581 4.59656 70.789 5.01134 70.9272 5.21873C71.2729 5.77177 71.6185 6.32481 72.2407 6.60133C72.8629 6.87785 73.6233 6.80872 73.9689 6.25568C74.5911 6.94698 75.4207 7.50002 76.3193 7.77654C76.4576 9.43565 76.5959 11.1639 76.0428 12.6848C75.5589 14.2747 74.2454 15.7265 72.6555 15.9339C73.0011 16.3486 73.5542 16.556 74.1072 16.4869C74.522 17.4547 74.5911 18.6299 74.2455 19.6669C75.4898 19.736 76.8033 18.9064 77.218 17.6621C76.3885 17.593 75.6972 16.8326 75.628 16.003C76.8033 14.966 77.7019 13.5143 78.0476 11.9243C78.7389 12.2009 79.6376 11.5787 79.6376 10.8183C79.6376 10.0578 78.6698 9.43566 77.9785 9.7813C78.0476 8.6061 78.0476 7.43089 78.1167 6.25568C78.1167 5.91003 78.1167 5.56438 77.9785 5.21873C77.8402 4.94221 77.5637 4.73482 77.3563 4.59656C76.4576 3.97439 75.4898 3.49049 74.3837 3.42136C73.2776 3.35223 72.1716 3.69788 71.4803 4.52743L71.0655 4.73482Z" fill="#BAE3E1"/>
<path d="M72.2407 8.9517V8.81344C72.2407 8.74431 72.1716 8.67518 72.1024 8.60605C72.0333 8.53692 71.9642 8.53692 71.895 8.60605C71.8259 8.60605 71.7568 8.67518 71.6877 8.74431C71.5494 9.02083 71.5494 9.29735 71.6185 9.50474C71.6185 9.57387 71.6877 9.643 71.7568 9.71213C71.8259 9.78126 71.895 9.78126 71.9642 9.71213C72.0333 9.71213 72.1024 9.643 72.1716 9.57387C72.2407 9.50474 72.2407 9.43561 72.1716 9.36648V9.22822C72.1716 9.15909 72.1716 9.15909 72.1716 9.08996C72.1716 9.08996 72.1716 9.02083 72.2407 8.9517L72.1716 9.08996L72.2407 8.9517Z" fill="#136964"/>
<path d="M75.8355 8.74435C75.7663 8.67522 75.6972 8.67522 75.6281 8.67522C75.559 8.67522 75.4898 8.67522 75.4207 8.74435C75.3516 8.81348 75.3516 8.88261 75.3516 8.95174C75.3516 9.09 75.3516 9.29739 75.3516 9.43565C75.3516 9.50478 75.4207 9.64303 75.4207 9.64303C75.4898 9.71216 75.559 9.71216 75.6281 9.71216C75.6972 9.71216 75.8355 9.71216 75.8355 9.64303C75.9046 9.5739 75.9737 9.50478 75.9046 9.43565C75.9046 9.22826 75.9046 9.09 75.9046 8.88261C75.9737 8.88261 75.9046 8.81348 75.8355 8.74435Z" fill="#136964"/>
<path d="M73.8307 13.9981C74.3837 13.9981 74.7985 13.7908 75.2133 13.376C75.4207 13.1686 75.075 12.8229 74.8677 13.0303C74.5911 13.3068 74.1764 13.4451 73.8307 13.4451C73.4159 13.5142 73.0011 13.4451 72.6555 13.1686C72.5864 13.0995 72.4481 13.1686 72.379 13.2377C72.3098 13.3068 72.379 13.4451 72.4481 13.5142C72.8629 13.929 73.3468 14.0673 73.8307 13.9981Z" fill="#136964"/>
<path d="M73.4159 12.6156C73.5542 12.6156 73.6233 12.6156 73.7616 12.6156C73.8998 12.6156 74.0381 12.6156 74.1072 12.5464C74.2455 12.4773 74.3146 12.4773 74.4529 12.4082C74.522 12.339 74.5911 12.2699 74.522 12.2008C74.4529 12.1316 74.3837 12.0625 74.3146 12.0625C74.1764 12.0625 74.1763 12.0625 74.0381 12.1316C73.8998 12.1316 73.8307 12.2008 73.6924 12.2008H73.6233H73.4159C73.3468 12.2008 73.2777 12.2008 73.2085 12.2699L73.1394 12.4082L73.2085 12.5464C73.2777 12.6156 73.3468 12.6156 73.4159 12.6156Z" fill="#136964"/>
<path d="M85.7902 43.7932C84.8223 38.4702 83.9928 33.2163 83.4397 27.8242C83.1632 25.612 83.025 22.9851 81.8498 20.9803C81.3658 20.2199 80.6745 19.5977 79.845 19.1138C79.0846 18.699 77.9785 18.0768 77.0798 18.0768C77.0798 18.0077 77.0798 17.9386 77.0798 17.8695C77.0798 17.8003 77.0798 17.8003 77.0798 17.7312C77.0798 17.5929 76.8724 17.5238 76.7341 17.5929C76.3194 17.4547 75.9737 17.1782 75.9046 16.7634C75.8355 16.556 75.8355 16.3486 75.8355 16.0721C75.8355 16.003 75.9046 15.9338 75.9046 15.8647C76.3194 15.3808 76.7341 14.8969 77.1489 14.413C77.6328 13.7908 78.0476 13.1686 78.1859 12.4082C79.1537 12.4082 80.0524 11.786 79.9141 10.68C79.845 9.78126 78.9463 9.29735 78.1859 9.50474V9.15909C78.5315 8.05302 78.7389 6.87781 78.6698 5.77173C78.8772 5.49521 78.9463 5.14956 79.0154 4.80391C79.0846 3.90522 78.6007 3.07566 78.0476 2.4535C76.9415 1.20916 75.3515 0.379599 73.6924 0.172209C72.1716 -0.0351805 70.2359 0.241339 69.199 1.55481C68.5768 2.31524 68.5768 3.28305 69.0607 4.04348C69.1299 4.11261 69.1299 4.18174 69.199 4.25087C68.5768 5.0113 68.5077 5.97912 68.646 6.87781C68.7842 7.7765 69.1299 8.67518 69.4755 9.57387C68.7151 9.36648 67.8164 9.91952 67.7473 10.7491C67.609 11.786 68.5768 12.4773 69.5446 12.4082C69.752 13.5834 70.6507 14.6204 71.4803 15.519C71.4803 15.5882 71.4803 15.6573 71.4803 15.7264C71.4803 15.7956 71.5494 15.9338 71.5494 16.003C71.6185 16.2103 71.6185 16.4177 71.6877 16.6251C71.7568 16.9708 71.7568 17.3164 71.7568 17.5929C71.6185 17.9386 71.2729 18.2842 70.8581 18.2842C70.7198 18.2842 70.6507 18.3534 70.6507 18.4916C68.4386 19.3903 66.3647 20.4273 65.3968 22.7777C64.3599 25.1972 64.2908 27.8242 64.2216 30.382C64.0834 33.4928 63.876 36.6728 63.7377 39.7836C63.6686 41.4427 63.5303 43.1019 63.5995 44.6918C63.5995 45.0375 63.5303 45.3831 63.8069 45.5905C64.0142 45.7288 64.2908 45.8671 64.5673 45.9362C64.4982 46.0744 64.3599 46.2818 64.3599 46.4201C64.2908 46.6966 64.2908 46.9731 64.2908 47.1805C64.2908 47.7336 64.429 48.2866 64.7747 48.7705C65.0512 49.1853 65.466 49.6001 65.9499 49.8075C66.2955 50.0149 66.9868 50.2914 67.3325 50.0149C67.4016 49.9457 67.4707 49.8766 67.4016 49.8075C67.3325 49.5309 67.1942 49.1853 67.056 48.9088C66.9868 48.7705 66.8486 48.6323 66.7794 48.494C66.7794 48.494 66.7794 48.494 66.7103 48.4249C66.8486 48.3557 66.9868 48.2866 67.1251 48.1483C67.4016 47.8027 67.4016 47.3879 67.3325 46.9731C67.2634 46.7657 67.2633 46.5584 67.1942 46.351C67.1942 46.2127 67.1942 46.1436 67.1942 46.0053C67.1942 45.8671 67.2634 45.7979 67.2634 45.6597C67.2634 45.5905 67.1942 45.5905 67.1251 45.5905L67.056 45.5214C66.8486 45.4523 66.5721 45.4523 66.2955 45.4523C66.0881 45.4523 65.9499 45.4523 65.7425 45.3831C65.5351 45.314 65.3277 45.314 65.1203 45.2449C64.9821 45.1758 64.8438 45.1758 64.6364 45.1066C64.2908 45.1066 64.1525 44.9684 64.2908 44.6227C64.1525 44.0697 64.2908 43.2401 64.2908 42.6871C64.2908 41.3045 64.3599 39.9219 64.429 38.5393C64.5673 35.8432 64.7747 33.1472 64.8438 30.4511C64.9129 28.1007 64.9821 25.6811 65.7425 23.3998C66.4338 21.4642 67.8164 20.3581 69.4755 19.4594C69.5446 20.7038 69.8903 21.879 70.1668 23.0542C70.5125 24.4368 70.8581 25.8194 71.2729 27.1329C71.6877 28.4463 72.1024 29.7598 72.5864 31.0041C73.0011 32.0411 73.4159 33.078 74.1072 33.9767C74.0381 37.2258 74.1072 40.4058 74.1763 43.6549C74.0381 43.6549 73.8307 43.6549 73.6924 43.6549C72.4481 43.6549 71.2038 43.5166 69.8903 43.3093C69.6138 43.2401 69.199 43.2401 68.9225 43.1019C68.5077 42.8945 68.5077 42.618 68.4386 42.2032C68.3694 41.581 68.4386 40.9588 68.4386 40.3367C68.4386 37.848 68.4386 35.3593 68.5077 32.8706C68.5077 30.382 68.7151 27.755 68.3694 25.2664C68.3694 25.1972 68.2312 25.1972 68.2312 25.2664C67.8164 28.0315 68.0238 31.0041 67.9547 33.7693C67.7473 36.6728 67.7473 39.5071 67.7473 42.4106C67.7473 42.8253 67.8164 43.1019 67.9547 43.3093C67.4016 47.8718 67.5399 52.5727 67.4707 57.1352C67.4016 61.7669 67.3325 66.3986 67.1251 71.0303C67.1251 71.1686 67.1942 71.2377 67.3325 71.3069C67.4707 71.3069 67.5399 71.376 67.6781 71.376C67.5399 71.8599 67.5399 72.4129 67.5399 72.8968C67.4707 73.4499 67.4707 74.0029 67.4016 74.6251C67.3325 75.1781 67.2634 75.8003 67.2634 76.4225C67.2634 76.699 67.1942 76.9755 67.1942 77.252C67.1942 77.1829 67.1251 77.1138 66.9868 77.1138C66.5029 77.3212 66.0881 77.5977 65.9499 78.0816C65.7425 78.6346 65.8116 79.2568 65.6734 79.8098C65.466 80.7085 65.1203 81.5381 64.7055 82.2985C64.2908 82.9898 63.8069 83.612 63.5303 84.3724C63.3229 84.9946 63.1847 85.6859 63.876 85.9624C64.5673 86.308 65.3968 86.5154 66.2264 86.5154C66.9177 86.5154 67.609 86.308 68.2312 85.8933C68.7842 85.4785 69.1299 84.9254 69.3373 84.3033C69.5446 83.8194 69.752 83.4046 70.1668 83.0589C70.4433 82.7824 70.6507 82.4368 70.789 82.0911C71.1346 81.3307 71.2038 80.5011 71.0655 79.7407C71.0655 79.6716 71.0655 79.6024 71.0655 79.5333C71.0655 79.1877 70.9964 78.9111 70.9272 78.5655C70.8581 78.4272 70.7198 78.3581 70.5816 78.3581C70.5125 78.3581 70.5125 78.3581 70.5125 78.4272C70.5816 78.0816 70.5816 77.7359 70.6507 77.3903C70.7198 76.7681 70.8581 76.0768 70.9272 75.4546C71.1346 74.2103 71.2729 72.966 71.342 71.7908C71.6185 71.7908 71.9642 71.7216 72.2407 71.6525H72.3098C72.3098 71.6525 72.3098 71.6525 72.379 71.5834V71.5142V71.2377C72.8629 68.0577 73.2085 64.8778 73.485 61.6287C73.6233 60.1078 73.7616 58.6561 73.8998 57.1352C73.969 56.3057 74.1072 55.4761 74.1763 54.7157C74.1763 54.5774 74.1763 54.4392 74.2455 54.2318C74.2455 54.37 74.2455 54.4392 74.2455 54.5083C74.3146 55.3379 74.3837 56.1674 74.4529 56.997C74.5911 58.5178 74.6602 60.0387 74.6602 61.5595C74.7985 64.7395 75.0059 67.9195 75.4898 71.0995C75.4898 71.0995 75.4898 71.1686 75.5589 71.1686C75.5589 71.1686 75.5589 71.2377 75.6281 71.2377H75.6972C75.6972 71.2377 75.6972 71.2377 75.7663 71.2377C76.112 71.3069 76.4576 71.376 76.8033 71.376C76.7341 73.3807 77.2872 75.3855 77.3563 77.3903C77.3563 77.6668 77.8402 77.6668 77.7711 77.3903C77.702 75.3855 77.2872 73.3807 77.0107 71.376C77.9094 71.4451 78.808 71.376 79.6376 71.1686C79.7759 73.2425 79.845 75.3855 79.7759 77.4594C79.7759 77.5285 79.7759 77.5285 79.845 77.5977C79.845 77.6668 79.845 77.6668 79.9141 77.6668C79.7067 77.5285 79.4302 77.4594 79.2228 77.4594C78.9463 77.5285 78.3933 77.7359 78.1859 78.0125C78.1167 78.0125 78.0476 78.0125 78.0476 78.0816C78.0476 78.2198 77.9785 78.3581 77.9785 78.4964L77.9094 78.4272L77.8402 78.3581L77.7711 78.289L77.6328 78.1507C77.6328 78.0816 77.5637 78.0125 77.5637 78.0125C77.5637 77.9433 77.4946 77.8742 77.4946 77.8051L77.4254 77.6668L77.2872 77.5977H77.2181L77.1489 77.6668V77.8051C77.1489 77.8742 77.1489 78.0125 77.1489 78.0816C77.1489 78.2198 77.2181 78.3581 77.2872 78.5655C77.3563 78.7037 77.4254 78.842 77.5637 78.9111C77.6328 78.9803 77.702 79.0494 77.7711 79.0494C77.8402 79.1185 77.9785 79.1877 78.0476 79.1185C78.1167 79.3259 78.1859 79.5333 78.255 79.6716C78.5315 80.2246 78.7389 80.7776 79.0154 81.3307C79.2228 81.7455 79.4993 82.2294 79.9832 82.3676C80.2598 82.4368 81.0893 82.3676 81.0202 81.8837C81.0202 81.8146 80.8819 81.7455 80.8128 81.7455C80.6745 81.7455 80.5363 81.8837 80.398 81.9529C80.2598 81.9529 80.0524 81.9529 79.9141 81.8146C79.5685 81.6072 79.4302 81.1233 79.2228 80.7776C79.0154 80.3629 78.808 79.879 78.6006 79.4642C78.4624 79.2568 78.3933 79.0494 78.3241 78.7729C78.255 78.6346 78.1859 78.4272 78.1859 78.289C78.1167 78.0124 78.5315 77.8742 78.7389 77.8051C78.9463 77.7359 79.1537 77.7359 79.2919 77.8051C79.4993 77.8742 79.5685 78.0816 79.6376 78.2198C79.7067 78.4964 79.845 78.7037 79.9141 78.9803C80.1215 79.4642 80.2598 79.9481 80.5363 80.432C80.6745 80.6394 80.7437 80.9159 80.8819 81.1233C80.9511 81.2616 81.0202 81.3998 81.0893 81.4689C81.1585 81.6072 81.2276 81.6763 81.0893 81.8146C80.9511 81.8837 81.0202 82.0911 81.1585 82.0911C81.435 82.2294 81.6424 81.8146 81.5732 81.6072C81.5732 81.3998 81.435 81.2616 81.3658 81.1233C81.2967 80.985 81.2276 80.7776 81.1585 80.6394C80.8128 79.9481 80.5363 79.2568 80.2598 78.4964C80.1215 78.2198 80.0524 77.8742 79.845 77.6668H79.9141C80.1906 77.7359 80.2598 78.0816 80.398 78.289C80.4672 78.5655 80.6054 78.842 80.7437 79.1877C81.0202 79.8098 81.3658 80.432 81.7115 81.0542C82.0571 81.6072 82.4719 82.1602 82.8867 82.6442C83.1632 82.9898 84.2002 83.8885 83.3706 84.2341C82.8176 84.5107 82.1263 84.5798 81.5041 84.5798C80.9511 84.6489 80.3289 84.5798 79.7759 84.3033C79.2228 84.0268 78.9463 83.4737 78.6006 82.9898C78.3241 82.5059 77.9785 82.1602 77.4254 81.8837C77.0798 81.6763 76.8033 81.5381 76.665 81.1233C76.5268 80.7776 76.5959 80.3629 76.5268 79.9481C76.5268 79.6024 76.5268 79.1877 76.5268 78.842C76.5268 78.6346 76.665 77.3903 77.0107 77.4594C77.0798 77.4594 77.2181 77.3212 77.0798 77.252C75.9046 76.699 76.0428 80.5011 76.112 81.0542C76.1811 81.3998 76.3194 81.7455 76.5959 81.9529C76.8724 82.2294 77.2872 82.2985 77.5637 82.5059C78.1167 82.9898 78.3933 83.7502 78.9463 84.2341C80.0524 85.3402 81.7115 85.0637 83.0941 84.7872C83.4397 84.718 83.7854 84.6489 83.9928 84.3033C84.2002 84.0268 84.2002 83.6811 84.131 83.4046C84.0619 83.0589 83.8545 82.8515 83.578 82.575C83.3015 82.2294 83.025 81.8837 82.7484 81.5381C82.1263 80.7085 81.6424 79.879 81.2276 78.9803C80.9511 78.4272 80.8128 77.252 80.0524 77.1829C80.1906 75.109 80.1906 73.0351 79.9832 70.9612C80.1215 70.8921 80.2598 70.8921 80.398 70.8921C80.5363 70.8921 80.6054 70.7538 80.6054 70.6156C80.398 65.9839 80.4672 61.3521 80.6054 56.7896C80.7437 52.2961 80.9511 47.7336 80.4672 43.2401C80.5363 43.2401 80.5363 43.2401 80.6054 43.2401C80.6745 43.8623 80.6746 44.5536 80.7437 45.1758C80.7437 45.4523 81.2276 45.4523 81.2276 45.1758C81.2967 45.1758 81.3658 45.1758 81.5041 45.1758C81.5041 45.4523 81.5041 45.7979 81.6424 46.0744C81.7115 46.2818 81.7806 46.4892 81.9189 46.6275C82.0571 46.8349 82.1954 46.9731 82.4028 47.1114H82.4719C82.4719 47.2497 82.4719 47.3879 82.4719 47.5953C82.4719 47.6644 82.5411 47.8027 82.6793 47.8027C83.3706 47.8027 83.9237 47.1114 83.8545 46.4201C83.8545 46.351 83.7163 46.2818 83.6471 46.2818C83.578 46.2818 83.5089 46.4201 83.5089 46.4892C83.578 46.904 83.2324 47.3188 82.8867 47.3879C82.8867 47.0423 82.8867 46.6275 82.8867 46.2818C82.8867 45.9362 82.8867 45.5905 82.8176 45.2449C83.0941 45.2449 83.3706 45.1758 83.578 45.1066C83.8545 45.0375 84.131 44.9684 84.4076 44.8992C84.4076 45.6597 84.4767 46.351 84.4767 47.1114C84.5458 47.8027 84.5458 48.4249 83.9237 48.8396C83.4397 49.1853 82.8867 49.3236 82.3337 49.4618C81.988 49.5309 81.7806 49.4618 81.7806 49.1162C81.7806 48.8396 81.7806 48.5631 81.8498 48.3557C81.8498 48.2175 81.7115 48.1483 81.6424 48.2866C81.3658 48.7705 81.1585 49.5309 81.7115 49.8075C82.0571 50.0149 82.4719 49.8766 82.8176 49.7383C83.1632 49.6692 83.5089 49.5309 83.7854 49.3927C84.4767 49.047 84.8915 48.494 84.8915 47.7336C84.8915 47.2497 84.8223 46.7657 84.8223 46.2818C84.7532 45.7979 84.6841 45.2449 84.6841 44.761C84.9606 44.6227 85.3063 44.4845 85.5828 44.2771C85.721 44.2771 85.7902 44.2079 85.8593 44.0697C86.1358 44.2079 86.0667 43.8623 85.7902 43.7932ZM66.1573 45.8671C66.3647 45.8671 66.5029 45.9362 66.6412 45.9362V46.0053C66.6412 46.2127 66.6412 46.351 66.6412 46.5584C66.7103 46.904 66.7794 47.2497 66.7103 47.5953C66.6412 47.8027 66.5029 48.0101 66.2955 48.0101C66.2264 48.0101 66.1573 48.0101 66.0881 47.941C66.019 47.8027 66.019 47.5953 66.019 47.457C66.019 46.9731 66.019 46.5584 66.019 46.0744C66.0881 46.0053 66.1573 45.9362 66.1573 45.8671ZM64.6364 45.9362C65.0512 46.0053 65.466 46.0744 65.7425 46.1436C65.6734 46.5584 65.6734 47.0423 65.6042 47.457C65.6042 47.6644 65.5351 47.941 65.6734 48.0792C65.7425 48.2175 65.8808 48.3557 66.0881 48.3557C66.1573 48.3557 66.1573 48.3557 66.2264 48.3557C66.2955 48.4249 66.2955 48.494 66.3647 48.5631C66.4338 48.7014 66.5029 48.8396 66.5721 48.9088C66.6412 49.1162 66.7103 49.3236 66.7794 49.5309C66.7103 49.5309 66.6412 49.4618 66.5721 49.4618C66.3647 49.3927 66.1573 49.3235 66.019 49.2544C65.6042 49.047 65.3277 48.7014 65.0512 48.3557C64.4982 47.6644 64.429 46.7657 64.6364 45.9362ZM77.0798 18.2842C77.3563 18.4916 77.702 18.6299 78.0476 18.7681C77.702 21.326 77.4254 23.8838 76.8033 26.4416C76.2502 28.792 75.4207 31.0041 74.4529 33.2163C74.4529 32.2485 74.3837 31.2807 74.3146 30.3128C74.3837 30.2437 74.4529 30.2437 74.4529 30.1054C75.075 28.1698 75.4898 26.2342 75.9046 24.2985C76.2502 22.5703 76.5268 20.7729 76.7341 19.0447C76.8033 18.9755 76.8724 18.8373 76.9415 18.7681C77.0107 18.5608 77.0798 18.4225 77.0798 18.2842ZM74.2455 20.2199C75.0059 20.2199 75.7663 20.0125 76.3194 19.5286C75.9737 21.1186 75.6281 22.7085 75.2824 24.2294C74.8676 25.8885 74.3837 27.5476 73.9689 29.2759C73.1394 25.9577 71.8951 22.7777 71.342 19.3903C72.1716 19.9434 73.2085 20.289 74.2455 20.2199ZM71.8259 18.0077C71.9642 18.0077 72.0333 17.9386 72.1024 17.8003C72.1716 17.3855 72.1024 16.9016 71.9642 16.4869C71.8951 16.3486 71.8951 16.1412 71.8259 16.003C71.8951 16.0721 71.9642 16.1412 72.0333 16.2103C72.2407 16.4177 72.5172 16.1412 72.379 15.9338C71.6877 14.6204 69.9594 13.6525 69.8903 12.0625C69.8903 11.8552 69.6829 11.786 69.5446 11.786C68.9225 11.9243 68.162 11.5786 68.162 10.8182C68.162 10.1269 68.9225 9.78126 69.4755 10.196C69.6829 10.3343 69.8903 10.1269 69.8903 9.91952V9.78126C70.0285 9.71213 70.0977 9.643 70.0977 9.50474C69.8903 8.05302 69.8903 6.53216 70.0285 5.08043C70.3051 5.28782 70.5816 5.42608 70.9272 5.56434C71.0655 5.63347 71.1346 5.7026 71.2729 5.77173C71.4803 5.90999 71.6877 5.97912 71.9642 6.11738C72.4481 6.32477 73.0703 6.32477 73.3468 5.84086C73.485 5.63347 73.5542 5.42608 73.5542 5.21869C74.7294 6.04825 76.2502 6.87781 77.5637 6.46303C77.5637 7.63824 77.4946 8.81344 77.5637 9.91952C77.5637 10.1269 77.8402 10.3343 77.9785 10.196C78.5315 9.78126 79.2919 10.1269 79.2919 10.8182C79.2919 11.5786 78.5315 11.9243 77.9094 11.786C77.702 11.7169 77.5637 11.8552 77.5637 12.0625C77.5637 12.9612 76.8724 13.7217 76.3194 14.413C75.7663 15.0351 75.2133 15.6573 74.7985 16.3486C74.6602 16.556 75.0059 16.8325 75.1442 16.6251L75.2824 16.4869C75.2824 16.6251 75.2824 16.7634 75.3515 16.9016C75.4207 17.1782 75.5589 17.4547 75.7663 17.6621C75.9737 17.8695 76.1811 17.9386 76.4576 18.0768C76.3194 18.4916 76.0428 18.9064 75.6281 19.1138C75.2133 19.3903 74.6603 19.5286 74.1763 19.5286C74.1072 19.5286 73.969 19.5286 73.8998 19.5286C72.932 19.5286 71.8951 19.1829 71.1346 18.5608C71.4803 18.4916 71.6877 18.2842 71.8259 18.0077ZM73.8998 33.2163C72.7246 31.2807 71.9642 28.8611 71.2729 26.7181C70.8581 25.4737 70.5125 24.2985 70.2359 23.0542C69.9594 21.8099 69.752 20.5655 69.3373 19.3903C69.752 19.1829 70.2359 18.9755 70.6507 18.7681C70.789 18.8373 70.8581 18.9755 70.9964 19.0447C71.2038 22.9851 72.932 26.7181 73.7616 30.5202C73.7616 30.6585 73.8998 30.7276 73.9689 30.7276C73.9689 31.6263 73.969 32.4559 73.8998 33.2163ZM67.1942 78.6346C67.2633 78.6346 67.4016 78.6346 67.4707 78.6346C67.6781 78.6346 67.8855 78.7038 68.0929 78.7038C68.4386 78.842 68.7842 78.9803 69.0607 79.3259C69.0607 79.3259 69.1299 79.3259 69.199 79.3951C69.1299 79.4642 69.0607 79.5333 69.0607 79.6716C68.9916 79.8098 68.8533 79.9481 68.7842 80.1555C68.5768 80.432 68.4386 80.7776 68.2312 81.0542C68.0238 81.3307 67.8855 81.6072 67.6781 81.9529C67.4707 82.2294 67.3325 82.575 67.1942 82.8515C66.9868 82.7133 66.8486 82.6442 66.6412 82.575C66.5029 82.5059 66.2955 82.5059 66.1573 82.5059H66.0881C66.3647 81.9529 66.5721 81.3998 66.7794 80.9159C66.9177 80.0863 67.1251 79.395 67.1942 78.6346ZM70.3742 79.4642C70.3742 79.6024 70.3742 79.7407 70.3742 79.879C70.3742 79.9481 70.3742 80.0172 70.3742 80.0863C70.3742 80.1555 70.4433 80.2246 70.4433 80.2937C70.4433 80.7776 70.3742 81.2616 70.1668 81.6763C69.8903 82.2985 69.4064 82.7133 69.0607 83.2663C68.7151 83.7502 68.646 84.3724 68.3003 84.9254C67.9547 85.4785 67.3325 85.755 66.7794 85.8933C66.0881 86.0315 65.3968 85.9624 64.7055 85.755C64.4982 85.6859 64.3599 85.6167 64.1525 85.5476C63.876 85.4093 63.8069 85.202 63.876 84.9254C63.9451 84.5798 64.0834 84.2341 64.2908 83.9576C64.9821 82.8515 65.6042 81.7455 66.019 80.432C66.1573 79.879 66.2264 79.3259 66.2264 78.7038C66.2955 78.0125 66.4338 77.5977 67.1251 77.3212C67.1251 77.3212 67.1251 77.252 67.1942 77.252V77.3212C67.1942 77.5977 67.1251 77.9433 67.1251 78.289C67.1251 78.289 67.1251 78.289 67.056 78.289C66.9177 78.2198 66.7103 78.3581 66.7103 78.4964C66.5721 79.2568 66.4338 79.9481 66.2955 80.7085C66.1573 81.3307 65.9499 81.9529 65.7425 82.575H65.6734C65.6042 82.6442 65.5351 82.6442 65.5351 82.7824C65.5351 82.8515 65.6042 82.9207 65.6734 82.9207C65.7425 82.9207 65.7425 82.9207 65.8116 82.9207C65.8808 82.9207 66.019 82.9207 66.0881 82.9207C66.1573 82.9207 66.2264 82.9207 66.2955 82.9207C66.3647 82.9207 66.4338 82.9207 66.5029 82.9898C66.7794 83.0589 66.9868 83.1972 67.1942 83.4046C67.2633 83.4737 67.4707 83.4737 67.5399 83.4046C67.609 83.3355 67.6781 83.1281 67.5399 83.0589C67.4707 82.9898 67.4016 82.9898 67.4016 82.9207C67.609 82.6442 67.8855 82.4368 68.0929 82.1602C68.3003 81.8837 68.5077 81.6072 68.7151 81.2616C68.9225 80.985 69.1299 80.7085 69.2681 80.3629C69.4064 80.2246 69.4755 80.0863 69.5446 79.879C69.5446 79.879 69.5446 79.879 69.5446 79.8098C69.8212 79.8098 70.0285 79.5333 70.1668 79.3259C70.2359 79.1877 70.3051 79.1185 70.3742 78.9803V79.0494V79.1185C70.3742 79.2568 70.3742 79.395 70.3742 79.4642ZM70.3051 75.3855C70.2359 76.0077 70.1668 76.5607 70.0977 77.1829C70.0285 77.5285 70.0285 77.8742 69.9594 78.2198C69.9594 78.3581 69.8903 78.5655 69.8903 78.7038C69.8212 78.842 69.752 78.9111 69.6829 79.0494L69.6138 79.1877V79.2568C69.6138 79.2568 69.6138 79.2568 69.6138 79.3259L69.5446 79.2568C69.5446 79.1877 69.5446 79.0494 69.4755 78.9803C69.1299 78.6346 68.7151 78.3581 68.2312 78.289C68.0238 78.2198 67.8164 78.2198 67.5399 78.2198C67.609 78.0125 67.609 77.7359 67.609 77.5285C67.609 77.1829 67.6781 76.8372 67.6781 76.5607C67.7473 76.0077 67.8164 75.3855 67.8164 74.7633C67.8855 74.2103 67.8855 73.6573 67.8855 73.0351C67.8855 72.7586 67.8855 72.4129 67.8855 72.1364C67.8855 71.929 67.8855 71.6525 67.8855 71.4451C68.8533 71.6525 69.8212 71.7216 70.789 71.6525C70.6507 72.8968 70.4433 74.1412 70.3051 75.3855ZM79.9832 57.0661C79.845 61.6287 79.7759 66.1221 79.9832 70.6847C78.6698 71.0303 77.2872 71.0995 75.9737 70.8229C75.5589 67.643 75.3515 64.5321 75.2133 61.3521C75.1442 59.9004 75.075 58.3796 75.0059 56.9278C74.9368 55.4761 74.8676 53.817 74.522 52.3653C74.5911 52.1579 74.5911 51.9505 74.5911 51.7431C74.5911 51.3975 74.6602 51.0518 74.6602 50.7062C74.6602 50.084 74.7294 49.3927 74.7294 48.7705C74.7294 48.1483 74.7294 47.457 74.7294 46.8349C74.7294 46.2127 74.7294 45.4523 74.522 44.8992H74.3837C74.1763 45.5214 74.2455 46.2127 74.2455 46.8349C74.2455 47.457 74.1763 48.1483 74.1763 48.7705C74.1763 49.3927 74.1072 50.084 74.1072 50.7062C74.1072 51.0518 74.0381 51.3975 74.0381 51.7431C74.0381 51.9505 74.0381 52.0887 74.0381 52.227C73.6233 53.6787 73.5542 55.3379 73.4159 56.7204C73.2776 58.2413 73.1394 59.8313 72.932 61.3521C72.6555 64.5321 72.3098 67.7121 71.8259 70.8921C70.4433 71.0995 69.1299 71.0995 67.8164 70.6847C68.0238 66.1221 68.0929 61.5595 68.0929 56.997C68.0929 52.4344 68.3003 47.941 68.3003 43.3784C68.5077 43.5166 68.7151 43.5858 68.9916 43.5858C70.3051 43.8623 71.6185 44.0006 72.932 44.0697C75.4207 44.2079 77.8402 43.9314 80.2598 43.3784C80.0524 48.0792 80.1906 52.5727 79.9832 57.0661ZM82.4028 46.5584C82.4028 46.6275 82.4028 46.7657 82.4028 46.8349C82.0571 46.4201 81.8498 46.0053 81.8498 45.4523C82.0571 45.4523 82.1954 45.4523 82.4028 45.4523C82.4028 45.8671 82.4028 46.2127 82.4028 46.5584ZM81.8498 45.0375C81.8498 44.9684 81.7806 44.9684 81.7115 44.8992C81.6424 44.8992 81.5041 44.8992 81.5041 45.0375C81.3658 45.0375 81.2967 45.0375 81.1585 45.0375C81.0893 44.4845 81.0202 43.8623 80.9511 43.3093C81.0893 43.171 81.0202 42.9636 80.8819 42.8253C80.8819 42.7562 80.8819 42.6871 80.8819 42.618C80.7437 39.6454 80.5363 36.7419 80.398 33.7693C80.3289 32.2485 80.1906 30.6585 80.1215 29.1376C80.0524 27.6168 80.0524 26.0959 79.7067 24.6442C79.7067 24.5751 79.5685 24.5751 79.5685 24.6442C79.3611 26.2342 79.5685 27.8933 79.6376 29.4833C79.7067 30.935 79.7759 32.4559 79.845 33.9767C79.9832 36.9493 80.1215 39.9219 80.2598 42.8945C78.3241 43.3784 76.3194 43.6549 74.3146 43.724C74.3146 40.5441 74.3837 37.3641 74.3837 34.2532C75.4898 31.8337 76.3885 29.2759 77.0798 26.649C77.702 24.1603 78.1859 21.5333 78.1859 18.9755C78.7389 19.1829 79.2228 19.3903 79.7067 19.6668C80.8128 20.3581 81.5041 21.3951 81.9189 22.6394C82.6793 24.9898 82.8867 27.4094 83.0941 29.8981C83.578 34.668 84.4076 39.438 85.3063 44.2079C84.2693 44.6227 83.0941 44.9684 81.8498 45.0375Z" fill="#136964"/>
<path d="M71.342 19.3903C71.6877 21.4642 72.2407 23.3999 72.8629 25.4046C73.3468 23.6764 73.8998 22.0173 74.0381 20.2199C73.1394 20.2199 72.1716 19.9434 71.342 19.3903Z" fill="#BAE3E1"/>
<path d="M76.3194 19.5286C75.7663 20.0125 74.9368 20.2199 74.2455 20.2199C74.1763 20.2199 74.1763 20.2199 74.1072 20.2199C73.8998 22.0172 73.4159 23.6764 72.932 25.4046C73.3468 26.6489 73.6924 27.9624 74.0381 29.2068C74.4529 27.5476 74.9368 25.8885 75.3516 24.1603C75.6972 22.7085 76.0429 21.1186 76.3194 19.5286C76.3885 19.5286 76.3885 19.5286 76.3194 19.5286Z" fill="#69E3DC"/>
<path d="M72.5172 7.43089C72.5172 7.29263 72.379 7.15437 72.3098 7.2235C71.9642 7.2235 71.6877 7.36176 71.342 7.50002C71.2729 7.56915 71.2038 7.63828 71.2729 7.77654C71.342 7.84567 71.4112 7.91479 71.4803 7.91479C71.6185 7.84567 71.7568 7.84567 71.8951 7.77654H71.9642H72.0333C72.1025 7.77654 72.1716 7.77654 72.2407 7.77654C72.379 7.63828 72.5172 7.56915 72.5172 7.43089Z" fill="#136964"/>
<path d="M75.4898 7.84566C75.5589 7.84566 75.6972 7.84566 75.7663 7.84566C75.8354 7.84566 75.9737 7.84566 76.0428 7.84566C76.112 7.84566 76.1811 7.84566 76.2502 7.77653C76.3194 7.7074 76.3194 7.63827 76.3194 7.56914C76.3194 7.43088 76.1811 7.29262 76.0428 7.29262C75.9737 7.29262 75.8354 7.29262 75.7663 7.29262C75.6972 7.29262 75.5589 7.29262 75.4898 7.29262L75.3515 7.36175L75.2824 7.50001L75.3515 7.63827C75.3515 7.77653 75.4207 7.84566 75.4898 7.84566Z" fill="#136964"/>
<path d="M74.1763 16.3486H74.0381H73.8998H73.7615H73.6924H73.6233C73.4159 16.3486 73.2776 16.3486 73.0702 16.2795C73.0011 16.2795 72.932 16.2795 72.8629 16.3486C72.8629 16.4178 72.8629 16.556 72.932 16.556C73.1394 16.6252 73.3468 16.6943 73.6233 16.7634C73.7615 16.7634 73.8307 16.7634 73.9689 16.7634C74.1072 16.7634 74.2455 16.6943 74.3146 16.6943C74.4528 16.6252 74.522 16.556 74.522 16.4178C74.4528 16.4178 74.3146 16.3486 74.1763 16.3486Z" fill="#136964"/>
<path d="M71.1346 38.4701C71.6185 38.4701 72.1024 38.4701 72.5172 38.4701C72.5863 38.4701 72.7246 38.401 72.7246 38.2627V38.1245C72.7246 38.0554 72.5863 37.9171 72.5172 37.9171C72.0333 37.9171 71.5494 37.9171 71.1346 37.9171C70.6507 37.9171 70.2359 37.9171 69.752 37.9171C69.4755 37.9171 69.4755 38.2627 69.752 38.3319C70.2359 38.401 70.6507 38.401 71.1346 38.4701Z" fill="#136964"/>
<path d="M78.6698 37.5715C78.5315 37.5715 78.3932 37.6406 78.255 37.7097C77.9785 37.7788 77.7711 37.848 77.4946 37.9171C77.218 37.9862 77.0106 37.9862 76.7341 38.0554C76.5959 38.0554 76.4576 38.0554 76.3193 38.1245C76.1811 38.1245 76.0428 38.1936 75.9046 38.1936C75.7663 38.1936 75.6972 38.401 75.8354 38.4701C76.112 38.5393 76.3193 38.6084 76.665 38.6084C76.9415 38.6084 77.1489 38.6084 77.4254 38.6084C77.7019 38.6084 77.9785 38.5393 78.255 38.4701C78.3932 38.401 78.5315 38.3319 78.6698 38.3319C78.808 38.2628 78.9463 38.1936 78.9463 37.9862C79.0154 37.7097 78.8772 37.5715 78.6698 37.5715Z" fill="#136964"/>
<path d="M71.342 1.8313C71.9642 1.69304 72.5863 1.69304 73.2085 1.76217C73.485 1.8313 73.8307 1.90043 74.1072 1.96956C74.3837 2.03869 74.6602 2.17695 75.0059 2.31521C75.3515 2.45347 75.5589 1.90043 75.2133 1.76217C74.6602 1.41652 73.8998 1.34739 73.2776 1.27826C72.5863 1.20913 71.895 1.34739 71.2729 1.48565C71.0655 1.55478 71.1346 1.90043 71.342 1.8313Z" fill="white"/>
<path d="M76.9415 3.00653L77.0106 2.9374L77.1489 2.79914L77.218 2.66088L77.1489 2.52262L77.0106 2.38436L76.9415 2.31523C76.8724 2.31523 76.8032 2.2461 76.7341 2.2461C76.665 2.2461 76.5959 2.2461 76.5267 2.31523C76.3885 2.38436 76.3193 2.52262 76.3193 2.66088C76.3193 2.79914 76.3885 2.9374 76.5267 3.00653C76.5959 3.00653 76.665 3.07566 76.7341 3.07566C76.8032 3.07566 76.8724 3.07566 76.9415 3.00653Z" fill="white"/>
<path d="M39.7497 78.1507H29.9332V78.842H39.7497V78.1507Z" fill="#136964"/>
<path d="M30.8319 80.2246V77.1138L27.168 78.7038L30.8319 80.2246Z" fill="#136964"/>
<path d="M60.9726 78.1507H51.8474V78.842H60.9726V78.1507Z" fill="#136964"/>
<path d="M60.143 80.2246V77.1138L63.7378 78.7038L60.143 80.2246Z" fill="#136964"/>
<path d="M44.5887 75.6621C44.4505 75.6621 44.174 75.6621 43.9666 75.7312C42.6531 75.9386 41.9618 76.9064 41.8236 77.9434C42.1001 77.5286 42.6531 77.2521 43.3444 77.2521C44.4505 77.2521 45.2109 78.0125 45.2109 79.2568C45.2109 80.3629 44.4505 81.469 43.137 81.469C41.8236 81.469 40.9249 80.4321 40.9249 78.8421C40.9249 77.5977 41.3396 76.6299 41.9618 76.0769C42.4457 75.593 43.137 75.2473 43.9666 75.1782C44.2431 75.1091 44.4505 75.1091 44.5887 75.1091V75.6621ZM44.3814 79.2568C44.3814 78.3582 43.8974 77.8051 43.0679 77.8051C42.584 77.8051 42.1001 78.1508 41.8927 78.5655C41.8236 78.6347 41.8236 78.7729 41.8236 78.9112C41.8236 79.9481 42.3075 80.7086 43.2062 80.7086C43.8975 80.7086 44.3814 80.1555 44.3814 79.2568Z" fill="#136964"/>
<path d="M46.317 81.2616V77.2521H45.6257V76.6299H46.317V76.4225C46.317 75.8004 46.4553 75.1782 46.8701 74.8325C47.2157 74.556 47.6305 74.4178 47.9761 74.4178C48.2527 74.4178 48.5292 74.4869 48.6674 74.556L48.5292 75.1782C48.3909 75.1091 48.2527 75.0399 47.9761 75.0399C47.2849 75.0399 47.0775 75.6621 47.0775 76.3534V76.6299H48.1835V77.2521H47.0775V81.2616H46.317V81.2616Z" fill="#136964"/>
<path d="M50.1191 75.3165V76.6299H51.2943V77.2521H50.1191V79.7408C50.1191 80.2938 50.2574 80.6395 50.7413 80.6395C50.9487 80.6395 51.1561 80.6395 51.2252 80.5703L51.2943 81.1925C51.1561 81.2616 50.8795 81.3308 50.5339 81.3308C50.1191 81.3308 49.8426 81.1925 49.6352 80.9851C49.4278 80.7086 49.2896 80.2938 49.2896 79.8099V77.3212H48.5983V76.6991H49.2896V75.593L50.1191 75.3165Z" fill="#136964"/>
</svg>
