<svg width="112" height="116" viewBox="0 0 112 116" fill="none" xmlns="http://www.w3.org/2000/svg">
	<defs>
		<linearGradient id="paint0_linear_6_8" x1="47.3088" y1="117.321" x2="45.8891" y2="23.8946" gradientUnits="userSpaceOnUse">
			<stop stop-color="#FFD9E6" />
			<stop offset="1" stop-color="#FF4D88" />
		</linearGradient>
		<linearGradient id="paint1_linear_6_8" x1="39.6318" y1="90.4459" x2="39.6318" y2="116" gradientUnits="userSpaceOnUse">
			<stop stop-color="#D79549" />
			<stop offset="1" stop-color="#FFBF76" />
		</linearGradient>
	</defs>
	<path d="M111.085 31.6409C111.085 42.3556 106.115 51.033 99.9662 51.033C93.8172 51.033 88.8477 42.3556 88.8477 31.6409C88.8477 31.6409 92.9387 30.2576 94.2438 29.6539C95.7748 28.9497 100.142 26.4597 100.142 26.4597C100.142 26.4597 104.434 28.9749 105.864 29.6539C107.169 30.2827 111.085 31.6409 111.085 31.6409Z" fill="#FFB259" />
	<path d="M109.052 33.1249C109.052 41.8777 104.986 48.9957 99.9662 48.9957C94.9466 48.9957 90.8807 41.9029 90.8807 33.1249C90.8807 33.1249 94.5199 31.9428 95.6493 31.4146C96.829 30.8864 100.167 28.8491 100.167 28.8491C100.167 28.8491 103.48 30.987 104.635 31.5403C105.689 32.0685 109.052 33.1249 109.052 33.1249Z" fill="white" />
	<path d="M105.864 36.9228H101.798V32.8482H98.1089V36.9228H94.043V40.5949H98.1089V44.6695H101.798V40.5949H105.864V36.9228Z" fill="#FF6670" />
	<path d="M12.9758 99.1735L17.9703 108.983L22.3876 102.695L17.6691 93.8916L12.9758 99.1735Z" fill="#FFD9D7" />
	<path d="M30.2936 53.196L30.8708 42.5065H42.4411L45.8294 54.9566L30.2936 53.196Z" fill="white" />
	<path d="M37.6222 0.100604C37.6222 0.100604 44.7501 -2.95695e-06 49.6443 6.16218C54.5384 12.3244 54.1871 13.4562 52.9573 17.9332C51.7274 22.4102 50.8992 25.0763 54.2875 27.013C57.6757 28.9245 57.8765 31.0121 58.4789 32.6218C59.1063 34.2316 56.5463 38.1804 57.3494 40.1171C60.1855 47.1093 60.4616 50.5802 60.4616 50.5802L11.9969 52.0893C11.9969 52.0893 11.244 43.8144 12.4236 40.4692C13.2268 38.2055 18.146 34.8604 18.5225 32.1188C18.7735 30.2576 16.2385 25.4033 17.4684 23.1899C19.7021 19.1405 21.7351 19.1405 21.0072 14.7138C20.5554 12.3244 22.3123 -1.25759 37.6222 0.100604Z" fill="#0E2549" />
	<path d="M30.5948 24.2966C30.5948 24.2966 31.1469 37.8534 30.6199 38.5828C28.863 41.0225 23.6175 43.1856 22.4127 43.4874C21.208 43.8144 40.2325 61.0182 40.2325 61.0182L51.9534 46.8577L48.1133 43.3868C48.1133 43.3868 44.8757 41.7519 43.4702 40.2931C42.0396 38.8343 41.3619 25.026 41.3619 25.026L30.5948 24.2966Z" fill="#FFD7D7" />
	<path d="M40.2575 61.2949L40.1069 61.1691C40.0568 61.1188 35.514 57.0191 31.0716 52.8439C21.986 44.2923 22.1115 43.7641 22.1868 43.5126C22.2119 43.412 22.2872 43.3365 22.3876 43.3114C23.768 42.9341 28.8127 40.771 30.4943 38.4822C30.8457 37.9037 30.6449 29.503 30.419 24.3218V24.0954L41.5626 24.85V25.026C41.7634 28.8491 42.4913 39.0104 43.6207 40.1674C45.0011 41.6011 48.1886 43.2108 48.2137 43.2359H48.2388L52.2294 46.8578L40.2575 61.2949ZM22.5884 43.6383C23.1907 44.9965 33.5563 54.68 40.2073 60.7164L51.6772 46.8578L47.9878 43.5377C47.6615 43.3868 44.6999 41.8526 43.3195 40.4189C41.9391 38.9853 41.2615 26.8873 41.1611 25.2021L30.7955 24.4978C30.8959 27.2142 31.2975 37.9792 30.7955 38.6834C29.0135 41.1232 23.9688 43.2359 22.5884 43.6383Z" fill="#0E2549" />
	<path d="M30.7704 26.51C29.1892 25.4536 26.3782 23.3157 26.303 21.2281C26.2277 19.1405 28.612 19.392 29.3398 19.719C29.8167 19.9454 29.3398 9.48224 29.3398 9.48224L45.478 8.62708C45.478 8.62708 47.8623 17.6063 47.2851 23.366C46.7078 29.1509 44.0474 30.66 39.856 30.8361C37.7729 30.9367 36.1415 30.484 34.8364 29.8049L30.7704 26.51Z" fill="#FFD7D7" />
	<path d="M39.3038 31.0373C37.6473 31.0373 36.0912 30.6852 34.7359 29.9809C34.6356 29.9306 34.6105 29.8049 34.6607 29.7042C34.7108 29.6036 34.8363 29.5785 34.9367 29.6288C36.3924 30.3833 38.0489 30.7103 39.856 30.6349C43.7964 30.4588 46.5321 29.1509 47.1094 23.3408C47.6364 18.0841 45.6537 10.0356 45.3525 8.82828L29.5908 9.68344C29.6159 10.3122 29.7163 12.3998 29.7665 14.4874C29.892 19.6435 29.6912 19.7693 29.5406 19.8699C29.4653 19.9202 29.39 19.9202 29.3147 19.8951C28.8881 19.6938 27.7837 19.5178 27.1061 19.9705C26.7296 20.222 26.5539 20.6496 26.579 21.2029C26.6543 23.1899 29.3398 25.2775 30.9461 26.3339C31.0465 26.3842 31.0716 26.51 30.9963 26.6106C30.9461 26.7112 30.8206 26.7363 30.7202 26.6609C29.0637 25.5542 26.2527 23.366 26.1775 21.2281C26.1524 20.3226 26.5539 19.8699 26.8802 19.6435C27.608 19.1405 28.7375 19.2663 29.3147 19.4675C29.5155 18.5117 29.3398 12.9532 29.1892 9.48222V9.28101L45.6788 8.4007L45.729 8.55161C45.7541 8.65221 48.1133 17.6314 47.536 23.366C47.26 26.183 46.4568 28.1197 45.1266 29.327C43.947 30.3833 42.3407 30.9115 39.9313 31.0121C39.6552 31.0373 39.4795 31.0373 39.3038 31.0373Z" fill="#0E2549" />
	<path d="M93.767 54.9063C91.1818 56.0885 80.49 65.6713 80.49 65.6713L87.2414 69.6452C87.2414 69.6452 93.8673 59.4336 94.8713 59.3833C96.8038 59.2827 102.526 59.9367 104.484 58.8551C107.445 57.2203 109.102 54.9315 108.826 54.1518C108.675 53.7242 103.555 56.2394 102.501 56.1891C99.4893 55.9878 95.6242 54.0512 93.767 54.9063Z" fill="#FFD8D6" />
	<path d="M56.22 44.3677C62.093 49.0208 71.3793 69.8968 73.2366 69.0165C74.9935 68.1865 85.4846 58.4276 85.4846 58.4276L93.2148 64.4137C93.2148 64.4137 77.8045 86.17 68.8444 84.7112C62.4695 83.68 55.4922 67.8595 55.4922 67.8595L54.4883 90.7979L24.8472 91.2003L20.179 66.0737L13.1515 78.9011L20.0033 95.0737L13.1515 103.952C13.1515 103.952 0 90.3955 0 78.9011C0 72.7138 9.964 49.8005 14.1554 45.5247C16.9915 42.6071 21.0072 42.2298 22.3876 42.2298C23.8182 42.2298 32.6026 41.3747 33.1046 42.2298C33.4057 42.758 39.1532 53.3218 39.5046 53.4727C40.634 53.9757 42.8176 41.9532 42.8176 41.9532C45.2772 41.5759 54.6388 43.1101 56.22 44.3677Z" fill="url(#paint0_linear_6_8)" />
	<path d="M64.2209 116C59.5923 116 55.9691 116 52.6495 116C37.0282 116 26.6141 116 15.0427 116C15.62 113.661 17.4433 109.083 17.6441 108.329C17.6691 108.228 17.6942 108.128 17.7193 108.052V108.027C18.6229 104.556 19.6017 101.664 20.5554 99.2993C22.8143 93.5395 24.797 90.8986 24.797 90.8986L54.5134 90.4459C54.5385 90.5213 55.1157 91.6028 55.9691 93.615C56.8224 95.602 57.9518 98.4944 59.1063 102.167C59.2067 102.468 63.0162 113.032 64.2209 116Z" fill="url(#paint1_linear_6_8)" />
	<path d="M46.8333 8.62705C46.8333 8.62705 32.1508 12.8274 29.5657 20.0711C29.5657 20.0711 28.6371 19.6938 27.9845 19.7693C27.1312 19.8699 26.8551 20.1717 26.8551 20.1717L27.3069 8.17432L46.8333 8.62705Z" fill="#0E2549" />
	
</svg>